<?xml version="1.0" encoding="UTF-8"?>
<!DOCTYPE svg PUBLIC "-//W3C//DTD SVG 1.1//EN" "http://www.w3.org/Graphics/SVG/1.1/DTD/svg11.dtd">
<svg xmlns="http://www.w3.org/2000/svg" version="1.1" width="900px" height="900px" style="shape-rendering:geometricPrecision; text-rendering:geometricPrecision; image-rendering:optimizeQuality; fill-rule:evenodd; clip-rule:evenodd" xmlns:xlink="http://www.w3.org/1999/xlink">
<g><path style="opacity:0.993" fill="#1e3d57" d="M 419.5,-0.5 C 439.5,-0.5 459.5,-0.5 479.5,-0.5C 623.967,12.7911 738.134,78.1245 822,195.5C 867.867,264.266 893.7,339.932 899.5,422.5C 899.5,440.5 899.5,458.5 899.5,476.5C 888.611,610.458 831.278,719.625 727.5,804C 652.065,861.864 566.732,893.698 471.5,899.5C 456.5,899.5 441.5,899.5 426.5,899.5C 272.606,887.29 153.106,817.29 68,689.5C 28.2275,625.016 5.39416,555.016 -0.5,479.5C -0.5,459.5 -0.5,439.5 -0.5,419.5C 11.7187,283.204 71.3854,173.037 178.5,89C 250.152,36.1669 330.486,6.33357 419.5,-0.5 Z M 427.5,88.5 C 545.704,84.5426 644.204,126.209 723,213.5C 803.53,312.119 828.197,423.453 797,547.5C 765.879,649.964 702.712,725.464 607.5,774C 503.795,821.894 399.795,822.561 295.5,776C 191.438,724.117 125.271,641.617 97,528.5C 71.3024,392.942 107.802,277.442 206.5,182C 269.525,126.167 343.192,95.0001 427.5,88.5 Z M 284.5,178.5 C 284.369,179.376 284.702,180.043 285.5,180.5C 286.622,179.37 287.956,178.703 289.5,178.5C 284.751,181.441 280.751,185.274 277.5,190C 273.757,190.567 272.757,192.4 274.5,195.5C 274.821,197.048 275.821,197.715 277.5,197.5C 277.326,199.861 276.993,202.194 276.5,204.5C 274.053,204.615 272.053,205.615 270.5,207.5C 269.133,205.115 267.799,205.448 266.5,208.5C 267.425,209.562 268.425,209.562 269.5,208.5C 269.586,209.496 269.252,210.329 268.5,211C 266.899,211.273 265.399,211.773 264,212.5C 263.5,212 263,211.5 262.5,211C 264.843,209.192 265.51,207.026 264.5,204.5C 263.817,204.863 263.15,205.196 262.5,205.5C 261.232,204.213 261.565,203.213 263.5,202.5C 262.975,201.808 262.308,201.308 261.5,201C 262.451,200.282 262.617,199.449 262,198.5C 260.167,199.667 258.667,201.167 257.5,203C 256.668,203.688 256.002,203.521 255.5,202.5C 258.958,199.544 262.292,196.377 265.5,193C 264.181,192.805 262.847,192.972 261.5,193.5C 264.379,189.055 268.379,186.055 273.5,184.5C 273.351,185.552 273.517,186.552 274,187.5C 278.533,185.516 282.033,182.516 284.5,178.5 Z M 286.5,208.5 C 289.316,204.518 292.316,200.685 295.5,197C 300.355,196.158 304.189,193.658 307,189.5C 304.949,194.833 301.783,199.667 297.5,204C 293.564,204.972 289.897,206.472 286.5,208.5 Z M 246.5,213.5 C 247.09,212.234 247.59,210.901 248,209.5C 248.718,208.549 249.551,208.383 250.5,209C 248.606,210.079 248.273,211.413 249.5,213C 248.552,213.483 247.552,213.649 246.5,213.5 Z M 257.5,210.5 C 255.957,215.582 252.957,219.582 248.5,222.5C 248.995,220.518 249.495,218.518 250,216.5C 252.663,214.666 255.163,212.666 257.5,210.5 Z M 451.5,214.5 C 480.082,250.649 502.749,290.316 519.5,333.5C 519.595,335.786 520.262,337.786 521.5,339.5C 522.703,343.11 523.703,346.777 524.5,350.5C 541.58,349.511 558.58,348.011 575.5,346C 577.922,348.003 578.755,350.503 578,353.5C 572.304,362.229 567.137,371.229 562.5,380.5C 560.75,381.659 559.75,383.326 559.5,385.5C 550.988,400.706 545.654,417.039 543.5,434.5C 540.833,444.5 540.833,454.5 543.5,464.5C 543.5,465.5 543.5,466.5 543.5,467.5C 543.721,470.067 544.388,472.401 545.5,474.5C 546.065,478.537 547.399,482.203 549.5,485.5C 549.402,487.553 550.069,489.22 551.5,490.5C 552.41,493.992 554.076,496.992 556.5,499.5C 557.11,501.434 558.11,503.101 559.5,504.5C 559.833,505.5 560.5,506.167 561.5,506.5C 561.427,508.027 562.094,509.027 563.5,509.5C 563.833,510.5 564.5,511.167 565.5,511.5C 565.738,513.404 566.738,514.738 568.5,515.5C 571.498,518.667 574.331,522 577,525.5C 577.625,528.25 576.625,530.25 574,531.5C 560.555,527.09 546.888,525.09 533,525.5C 532.178,528.117 531.678,530.784 531.5,533.5C 530.076,535.515 529.41,537.848 529.5,540.5C 513.089,596.323 487.423,647.323 452.5,693.5C 451.542,693.953 450.708,694.619 450,695.5C 447.963,693.294 445.797,691.294 443.5,689.5C 443.167,689.5 442.833,689.5 442.5,689.5C 439.899,685.229 436.566,681.563 432.5,678.5C 383.896,616.391 356.896,545.724 351.5,466.5C 351.666,457.161 351.5,447.827 351,438.5C 350.617,437.944 350.117,437.611 349.5,437.5C 335.807,426.501 320.474,418.501 303.5,413.5C 301.537,412.18 299.537,410.846 297.5,409.5C 296.477,406.993 297.144,404.827 299.5,403C 320.352,399.439 340.019,392.605 358.5,382.5C 368.214,342.082 383.714,304.082 405,268.5C 417.936,248.296 433.436,230.296 451.5,214.5 Z M 711.5,234.5 C 713.795,233.072 715.795,233.572 717.5,236C 715.16,236.748 713.16,236.248 711.5,234.5 Z M 225.5,238.5 C 225.217,239.289 224.717,239.956 224,240.5C 223.472,239.184 223.972,238.517 225.5,238.5 Z M 180.5,252.5 C 180.5,254.167 180.5,255.833 180.5,257.5C 181.822,257.67 182.989,257.337 184,256.5C 184.692,257.025 185.192,257.692 185.5,258.5C 183.647,258.92 181.813,259.253 180,259.5C 179.5,260.5 179,261.5 178.5,262.5C 179.602,263.176 180.602,263.842 181.5,264.5C 179.22,264.746 177.22,264.746 175.5,264.5C 176.167,263.5 176.833,262.5 177.5,261.5C 175.072,257.923 175.572,254.59 179,251.5C 179.383,252.056 179.883,252.389 180.5,252.5 Z M 235.5,265.5 C 232.664,265.798 232.164,265.131 234,263.5C 234.717,264.044 235.217,264.711 235.5,265.5 Z M 720.5,264.5 C 720.56,263.957 720.893,263.624 721.5,263.5C 724.648,266.773 726.315,270.44 726.5,274.5C 724.474,271.103 722.474,267.77 720.5,264.5 Z M 183.5,280.5 C 184.707,281.189 186.041,281.355 187.5,281C 186.481,284.048 184.481,285.381 181.5,285C 182.582,283.67 183.249,282.17 183.5,280.5 Z M 708.5,304.5 C 712.808,307.783 714.975,312.116 715,317.5C 714.333,318.167 713.667,318.833 713,319.5C 709.024,315.305 707.524,310.305 708.5,304.5 Z M 681.5,346.5 C 681.5,343.833 681.5,341.167 681.5,338.5C 682.263,334.048 683.763,329.715 686,325.5C 686.837,323.993 688.004,323.493 689.5,324C 691.126,326.628 693.126,328.961 695.5,331C 690.717,333.81 690.384,336.976 694.5,340.5C 693.833,341.5 693.167,342.5 692.5,343.5C 695.807,345.208 699.307,346.541 703,347.5C 703.873,347.265 704.707,346.931 705.5,346.5C 707.348,350.181 710.182,352.848 714,354.5C 715.396,359.228 718.562,361.728 723.5,362C 725.446,365.881 728.112,369.214 731.5,372C 728.61,377.91 723.943,380.91 717.5,381C 717,381.5 716.5,382 716,382.5C 712.649,378.48 710.149,373.98 708.5,369C 709.233,367.234 709.567,365.401 709.5,363.5C 700.594,362.31 692.594,358.977 685.5,353.5C 683.902,351.302 682.569,348.969 681.5,346.5 Z M 197.5,342.5 C 198.404,343.209 198.737,344.209 198.5,345.5C 197.448,345.649 196.448,345.483 195.5,345C 196.381,344.292 197.047,343.458 197.5,342.5 Z M 657.5,477.5 C 661.102,467.358 664.102,457.025 666.5,446.5C 670.224,446.95 672.391,445.283 673,441.5C 673.667,439.833 673.667,438.167 673,436.5C 671.629,438.041 670.129,439.375 668.5,440.5C 668.674,438.139 669.007,435.806 669.5,433.5C 670.727,430.435 672.893,428.101 676,426.5C 677.638,431.123 679.305,435.789 681,440.5C 681.831,447.192 681.664,453.858 680.5,460.5C 676.623,462.685 672.623,464.685 668.5,466.5C 666.165,469.166 664.331,472.166 663,475.5C 661.275,476.464 659.441,477.131 657.5,477.5 Z M 166.5,427.5 C 167.995,427.415 168.995,428.081 169.5,429.5C 169.154,430.696 168.654,430.696 168,429.5C 167.667,430.833 167.333,432.167 167,433.5C 165.311,431.68 165.145,429.68 166.5,427.5 Z M 182.5,435.5 C 183.452,436.452 184.452,437.452 185.5,438.5C 185,438.833 184.5,439.167 184,439.5C 182.27,438.351 180.604,438.351 179,439.5C 178.517,438.552 178.351,437.552 178.5,436.5C 180.099,436.768 181.432,436.434 182.5,435.5 Z M 113.5,439.5 C 114.79,440.058 115.623,441.058 116,442.5C 117.072,448.141 117.405,453.807 117,459.5C 115.667,457.5 114.333,455.5 113,453.5C 112.28,451.888 112.446,450.388 113.5,449C 111.866,448.506 110.199,448.34 108.5,448.5C 108.714,446.856 108.38,445.356 107.5,444C 109.664,442.509 111.664,441.009 113.5,439.5 Z M 194.5,444.5 C 197.001,444.511 197.168,445.178 195,446.5C 194.536,445.906 194.369,445.239 194.5,444.5 Z M 150.5,449.5 C 150.217,450.289 149.717,450.956 149,451.5C 148.472,450.184 148.972,449.517 150.5,449.5 Z M 112.5,461.5 C 120.972,465.44 125.139,472.106 125,481.5C 124.71,479.956 124.044,478.623 123,477.5C 121.692,480.73 120.692,484.064 120,487.5C 119.9,484.563 119.067,481.896 117.5,479.5C 119.082,474.574 118.582,469.908 116,465.5C 115,466.833 114,468.167 113,469.5C 110.076,489.302 109.076,489.302 110,469.5C 110.272,466.618 111.106,463.951 112.5,461.5 Z M 127.5,489.5 C 129.315,490.63 131.315,491.296 133.5,491.5C 133.762,492.978 133.429,494.311 132.5,495.5C 130.5,494.167 128.5,492.833 126.5,491.5C 126.863,490.817 127.196,490.15 127.5,489.5 Z M 117.5,493.5 C 120.603,493.133 123.603,493.966 126.5,496C 123.97,497.422 121.303,497.755 118.5,497C 117.663,495.989 117.33,494.822 117.5,493.5 Z M 715.5,604.5 C 716.239,604.369 716.906,604.536 717.5,605C 715.114,610.945 711.614,616.112 707,620.5C 706.799,617.485 707.132,614.485 708,611.5C 710.396,608.933 712.896,606.6 715.5,604.5 Z M 695.5,632.5 C 696.75,635.775 698.083,639.109 699.5,642.5C 697.993,643.739 696.826,643.405 696,641.5C 695.502,638.518 695.335,635.518 695.5,632.5 Z M 709.5,651.5 C 709.799,653.604 709.466,655.604 708.5,657.5C 707.243,655.201 707.577,653.201 709.5,651.5 Z M 544.5,658.5 C 547.285,662.449 546.952,662.949 543.5,660C 544.056,659.617 544.389,659.117 544.5,658.5 Z"/></g>
<g><path style="opacity:1" fill="#e7eaed" d="M 506.5,22.5 C 508.604,22.2011 510.604,22.5344 512.5,23.5C 509.618,27.4342 505.951,29.4342 501.5,29.5C 502.931,26.9613 504.597,24.6279 506.5,22.5 Z"/></g>
<g><path style="opacity:1" fill="#f2f4f5" d="M 471.5,60.5 C 468.375,61.4794 465.042,61.8128 461.5,61.5C 457.861,60.7325 458.194,60.0658 462.5,59.5C 462.626,50.4906 462.959,41.4906 463.5,32.5C 460.813,32.3359 458.146,32.5026 455.5,33C 454.929,34.2051 454.262,35.3717 453.5,36.5C 452.526,34.2573 452.192,31.924 452.5,29.5C 462.178,29.5747 471.844,29.9081 481.5,30.5C 481.852,33.0728 481.352,35.4062 480,37.5C 478.991,35.9751 478.491,34.3084 478.5,32.5C 475.5,32.5 472.5,32.5 469.5,32.5C 468.861,42.2266 469.528,51.5599 471.5,60.5 Z"/></g>
<g><path style="opacity:1" fill="#f9f9fa" d="M 430.5,29.5 C 434.846,29.3343 439.179,29.501 443.5,30C 442.584,30.3742 441.75,30.8742 441,31.5C 440.333,40.5 440.333,49.5 441,58.5C 442.255,59.2106 443.421,60.044 444.5,61C 440.167,61.6667 435.833,61.6667 431.5,61C 432.025,60.3076 432.692,59.8076 433.5,59.5C 434.651,50.1663 434.651,40.8329 433.5,31.5C 431.821,31.7148 430.821,31.0481 430.5,29.5 Z"/></g>
<g><path style="opacity:1" fill="#f0f2f3" d="M 399.5,31.5 C 403.846,31.3343 408.179,31.501 412.5,32C 419.27,37.4001 418.936,42.5668 411.5,47.5C 415.127,52.7944 419.46,57.461 424.5,61.5C 421.554,62.6548 418.554,62.8214 415.5,62C 411.383,57.5941 407.383,53.0941 403.5,48.5C 405.322,46.9899 407.322,45.6566 409.5,44.5C 411.528,36.8547 408.528,33.5213 400.5,34.5C 401.216,43.8588 402.216,53.1922 403.5,62.5C 404.552,62.3505 405.552,62.5172 406.5,63C 402.691,64.5882 398.691,64.9216 394.5,64C 395.894,63.044 396.561,61.7106 396.5,60C 395.552,51.7964 394.385,43.6297 393,35.5C 392.075,34.9535 391.242,34.2868 390.5,33.5C 393.642,32.8326 396.642,32.166 399.5,31.5 Z"/></g>
<g><path style="opacity:1" fill="#edeff1" d="M 490.5,32.5 C 491.274,31.8529 492.274,31.5195 493.5,31.5C 500.145,32.4312 506.812,33.0978 513.5,33.5C 513.852,36.0728 513.352,38.4062 512,40.5C 509.411,36.2124 505.577,34.7124 500.5,36C 499.544,39.3936 499.211,42.8936 499.5,46.5C 502.518,46.6646 505.518,46.498 508.5,46C 509,45.5 509.5,45 510,44.5C 510.667,47.1667 510.667,49.8333 510,52.5C 509.333,53.8333 508.667,53.8333 508,52.5C 507.517,51.552 507.351,50.552 507.5,49.5C 504.223,49.2161 501.057,49.5495 498,50.5C 497.333,54.1667 497.333,57.8333 498,61.5C 501.409,62.6219 504.909,62.7886 508.5,62C 509.333,61.1667 510.167,60.3333 511,59.5C 511.18,61.4884 511.014,63.4884 510.5,65.5C 502.404,65.2302 494.404,64.2302 486.5,62.5C 487.325,61.6143 488.325,61.281 489.5,61.5C 490.942,52.6902 492.275,43.8569 493.5,35C 492.87,33.6898 491.87,32.8565 490.5,32.5 Z"/></g>
<g><path style="opacity:1" fill="#eff1f3" d="M 377.5,34.5 C 378.675,34.281 379.675,34.6143 380.5,35.5C 379.263,36.2807 378.263,37.2807 377.5,38.5C 379.837,46.6841 380.67,55.0174 380,63.5C 375.748,69.5876 369.915,71.7543 362.5,70C 361,68.5 359.5,67 358,65.5C 356.164,57.8034 354.33,50.1368 352.5,42.5C 351.325,42.719 350.325,42.3857 349.5,41.5C 353.711,39.7992 358.045,38.9659 362.5,39C 361.272,39.779 360.272,40.779 359.5,42C 361.001,48.8384 362.501,55.6717 364,62.5C 366.053,66.2916 369.219,67.4582 373.5,66C 374.333,65.1667 375.167,64.3333 376,63.5C 376.695,55.3043 375.695,47.3043 373,39.5C 371.795,38.9288 370.628,38.2621 369.5,37.5C 372.184,36.247 374.85,35.247 377.5,34.5 Z"/></g>
<g><path style="opacity:1" fill="#f2f3f5" d="M 543.5,39.5 C 552.587,41.5839 561.254,44.7506 569.5,49C 574.378,57.9672 573.045,65.9672 565.5,73C 562.389,74.7221 559.056,75.5554 555.5,75.5C 548.583,74.485 541.916,72.6517 535.5,70C 537.848,69.8898 539.348,68.7231 540,66.5C 541.832,59.0023 543.666,51.5023 545.5,44C 544.926,42.3933 544.26,40.8933 543.5,39.5 Z"/></g>
<g><path style="opacity:1" fill="#edeff2" d="M 331.5,44.5 C 338.737,42.9705 341.737,45.6371 340.5,52.5C 335.511,46.0135 330.344,46.0135 325,52.5C 322.769,61.8295 325.603,68.9962 333.5,74C 338.469,74.6775 342.969,73.5108 347,70.5C 347.5,70.8333 348,71.1667 348.5,71.5C 342.161,78.5113 334.494,80.3446 325.5,77C 318.642,71.424 316.142,64.2573 318,55.5C 321.213,50.1075 325.713,46.4408 331.5,44.5 Z"/></g>
<g><path style="opacity:1" fill="#21405a" d="M 552.5,45.5 C 560.427,45.2559 564.761,48.9226 565.5,56.5C 565.42,69.1034 559.42,73.9367 547.5,71C 547.668,62.3257 549.334,53.8257 552.5,45.5 Z"/></g>
<g><path style="opacity:1" fill="#eaedef" d="M 294.5,46.5 C 295.675,46.281 296.675,46.6143 297.5,47.5C 295.533,51.297 293.366,54.9636 291,58.5C 290.029,53.6899 291.195,49.6899 294.5,46.5 Z"/></g>
<g><path style="opacity:1" fill="#eef1f2" d="M 585.5,53.5 C 585.735,52.9033 586.235,52.5699 587,52.5C 593.735,54.687 600.235,57.3537 606.5,60.5C 604.578,67.1003 603.245,67.1003 602.5,60.5C 599.523,59.9292 596.69,58.9292 594,57.5C 586.529,66.2199 588.362,70.2199 599.5,69.5C 600.48,72.2334 599.814,74.5667 597.5,76.5C 595.388,73.27 592.388,71.27 588.5,70.5C 586.099,74.4937 585.099,78.6604 585.5,83C 589.52,85.788 593.52,85.9546 597.5,83.5C 598.154,85.8896 597.321,87.8896 595,89.5C 587.523,87.3408 580.356,84.5075 573.5,81C 576.423,80.7934 578.256,79.2934 579,76.5C 581.697,69.4085 584.197,62.2419 586.5,55C 586.43,54.2352 586.097,53.7352 585.5,53.5 Z"/></g>
<g><path style="opacity:1" fill="#f0f2f4" d="M 301.5,55.5 C 302.496,55.4142 303.329,55.7476 304,56.5C 306.355,61.6456 305.188,62.6456 300.5,59.5C 297.29,59.8939 294.624,61.2273 292.5,63.5C 293.348,66.909 294.848,69.909 297,72.5C 300.921,71.8365 303.754,69.8365 305.5,66.5C 307.798,68.7497 308.631,71.4164 308,74.5C 307.261,73.4258 306.261,72.7591 305,72.5C 301.983,72.9953 299.483,74.3286 297.5,76.5C 298.511,80.5372 300.511,83.8705 303.5,86.5C 308.826,86.1865 312.159,83.5198 313.5,78.5C 315.533,80.4515 315.866,82.6182 314.5,85C 307.611,88.2912 300.611,90.9579 293.5,93C 294.804,92.196 295.471,91.0293 295.5,89.5C 292.237,81.5453 289.07,73.5453 286,65.5C 284.933,64.8095 283.766,64.3095 282.5,64C 288.923,61.1167 295.257,58.2834 301.5,55.5 Z"/></g>
<g><path style="opacity:1" fill="#8395a3" d="M 471.5,60.5 C 472.043,60.56 472.376,60.8933 472.5,61.5C 468.685,62.8077 465.019,62.8077 461.5,61.5C 465.042,61.8128 468.375,61.4794 471.5,60.5 Z"/></g>
<g><path style="opacity:1" fill="#f3f5f6" d="M 617.5,67.5 C 624.393,66.3512 630.06,68.3512 634.5,73.5C 632.366,79.8658 630.866,79.8658 630,73.5C 627.387,70.4808 624.221,69.8141 620.5,71.5C 619.572,72.7678 619.405,74.1011 620,75.5C 623.417,79.5603 625.917,84.0603 627.5,89C 626.084,97.7233 621.084,100.723 612.5,98C 609.268,96.7695 606.601,94.7695 604.5,92C 605.542,90.082 606.708,88.2487 608,86.5C 609.036,94.733 613.203,97.0663 620.5,93.5C 621.485,91.9017 621.651,90.235 621,88.5C 617.452,84.7337 614.952,80.4003 613.5,75.5C 613.782,72.2691 615.115,69.6024 617.5,67.5 Z"/></g>
<g><path style="opacity:1" fill="#edf0f2" d="M 267.5,69.5 C 272.684,68.6816 274.684,70.6816 273.5,75.5C 270.042,71.5664 266.542,71.5664 263,75.5C 262.104,78.025 262.604,80.1917 264.5,82C 268.833,82.3333 273.167,82.6667 277.5,83C 285.96,87.9981 286.627,93.9981 279.5,101C 275.897,103.549 272.064,104.382 268,103.5C 266.459,101.523 265.959,99.523 266.5,97.5C 269.74,100.817 273.407,101.317 277.5,99C 280.39,95.5808 280.057,92.5808 276.5,90C 271.386,89.8909 266.386,89.2242 261.5,88C 256.902,83.9198 256.402,79.4198 260,74.5C 262.479,72.6859 264.979,71.0192 267.5,69.5 Z"/></g>
<g><path style="opacity:1" fill="#f0f2f4" d="M 662.5,90.5 C 669.433,89.9665 674.766,92.6332 678.5,98.5C 675.38,105.453 673.88,105.12 674,97.5C 671.859,94.5088 669.025,93.3421 665.5,94C 664.196,94.804 663.529,95.9707 663.5,97.5C 664.804,101.44 666.637,105.107 669,108.5C 669.137,121.316 663.304,124.816 651.5,119C 649.649,117.316 647.982,115.483 646.5,113.5C 650.766,105.161 652.599,105.827 652,115.5C 655.746,119.393 659.412,119.393 663,115.5C 663.667,114.5 663.667,113.5 663,112.5C 660.557,107.948 658.39,103.282 656.5,98.5C 657.548,95.0505 659.548,92.3839 662.5,90.5 Z"/></g>
<g><path style="opacity:0.988" fill="#888987" d="M 684.5,475.5 C 690.312,480.469 696.312,485.303 702.5,490C 703.998,492.482 705.498,494.982 707,497.5C 708.868,496.328 710.702,496.495 712.5,498C 715.046,501.59 717.213,505.423 719,509.5C 721.28,511.037 723.78,512.203 726.5,513C 727.916,515.835 729.583,518.502 731.5,521C 736.514,519.889 741.014,521.055 745,524.5C 745.409,529.973 747.742,531.306 752,528.5C 757.305,520.363 762.805,512.363 768.5,504.5C 768.407,520.147 765.907,535.48 761,550.5C 750.424,571.819 740.257,593.319 730.5,615C 729.754,620.238 729.754,625.572 730.5,631C 725.097,648.414 715.597,663.247 702,675.5C 699.905,681.458 697.239,687.124 694,692.5C 685.069,701.486 676.236,710.653 667.5,720C 656.306,731.19 643.473,740.024 629,746.5C 628.5,746.333 628,746.167 627.5,746C 630.563,742.433 630.063,739.599 626,737.5C 625.548,734.123 624.882,730.789 624,727.5C 622.636,724.637 620.47,722.637 617.5,721.5C 616.356,716.712 616.856,712.045 619,707.5C 621.994,704.18 624.494,700.513 626.5,696.5C 625.52,695.019 624.353,693.685 623,692.5C 623.037,688.841 621.871,685.674 619.5,683C 613.762,680.394 607.762,678.394 601.5,677C 600.667,676.167 599.833,675.333 599,674.5C 599.438,669.242 600.605,664.075 602.5,659C 601.412,654.79 598.745,653.123 594.5,654C 589.815,657.199 584.815,659.699 579.5,661.5C 576.093,660.052 572.593,658.718 569,657.5C 567.112,657.796 565.278,658.296 563.5,659C 554.997,664.084 546.664,669.417 538.5,675C 530.446,677.129 522.446,679.462 514.5,682C 511.328,683.752 508.328,685.752 505.5,688C 500.474,687.979 495.474,687.479 490.5,686.5C 531.342,655.494 568.176,620.161 601,580.5C 625.532,549.447 644.366,515.113 657.5,477.5C 659.441,477.131 661.275,476.464 663,475.5C 664.331,472.166 666.165,469.166 668.5,466.5C 672.623,464.685 676.623,462.685 680.5,460.5C 681.664,453.858 681.831,447.192 681,440.5C 679.305,435.789 677.638,431.123 676,426.5C 672.893,428.101 670.727,430.435 669.5,433.5C 672.168,418.161 674.834,402.828 677.5,387.5C 678.833,386.167 678.833,384.833 677.5,383.5C 678.566,370.996 679.9,358.663 681.5,346.5C 682.569,348.969 683.902,351.302 685.5,353.5C 692.594,358.977 700.594,362.31 709.5,363.5C 709.567,365.401 709.233,367.234 708.5,369C 710.149,373.98 712.649,378.48 716,382.5C 716.5,382 717,381.5 717.5,381C 723.943,380.91 728.61,377.91 731.5,372C 728.112,369.214 725.446,365.881 723.5,362C 718.562,361.728 715.396,359.228 714,354.5C 710.182,352.848 707.348,350.181 705.5,346.5C 704.707,346.931 703.873,347.265 703,347.5C 699.307,346.541 695.807,345.208 692.5,343.5C 693.167,342.5 693.833,341.5 694.5,340.5C 690.384,336.976 690.717,333.81 695.5,331C 693.126,328.961 691.126,326.628 689.5,324C 688.004,323.493 686.837,323.993 686,325.5C 683.763,329.715 682.263,334.048 681.5,338.5C 682.285,325.262 682.285,312.096 681.5,299C 665.991,288.074 649.658,278.407 632.5,270C 604.318,255.907 575.985,242.407 547.5,229.5C 547.5,228.833 547.167,228.5 546.5,228.5C 545.334,223.503 545.334,218.503 546.5,213.5C 548.167,214.5 549.5,215.833 550.5,217.5C 551.097,213.605 551.097,209.605 550.5,205.5C 551.7,204.708 553.033,204.708 554.5,205.5C 554.586,204.504 554.252,203.671 553.5,203C 548.25,201.826 542.916,201.159 537.5,201C 536.833,200.333 536.167,199.667 535.5,199C 538.167,198.667 540.833,198.333 543.5,198C 545.5,197.333 546.833,196 547.5,194C 553.089,192.582 558.756,191.582 564.5,191C 561.361,189.982 558.195,189.149 555,188.5C 554.667,189.167 554.333,189.833 554,190.5C 548.514,187.68 542.681,185.847 536.5,185C 530.444,180.304 523.777,176.637 516.5,174C 515.748,173.329 515.414,172.496 515.5,171.5C 519.458,169.867 519.458,168.2 515.5,166.5C 516.364,164.803 517.697,163.637 519.5,163C 517.999,161.748 516.332,160.748 514.5,160C 514.833,159.667 515.167,159.333 515.5,159C 513.26,158.023 510.927,157.523 508.5,157.5C 507.758,154.191 506.091,151.357 503.5,149C 498.816,149.927 494.15,149.594 489.5,148C 483.034,144.765 476.368,142.098 469.5,140C 468.663,138.989 468.33,137.822 468.5,136.5C 457.832,135.206 447.165,133.872 436.5,132.5C 439.212,131.772 441.879,130.939 444.5,130C 443.185,128.605 443.519,127.605 445.5,127C 448.471,126.206 451.471,125.539 454.5,125C 464.232,124.73 473.899,125.063 483.5,126C 482.514,123.672 480.514,121.672 477.5,120C 478.624,119.751 479.624,119.251 480.5,118.5C 476.878,117.675 473.211,117.175 469.5,117C 467.381,116.902 465.714,116.069 464.5,114.5C 469.888,112.158 475.555,110.991 481.5,111C 483.595,110.444 483.762,109.944 482,109.5C 480.208,110.037 478.375,110.37 476.5,110.5C 471.594,109.023 466.594,108.023 461.5,107.5C 452.488,110.102 443.488,110.102 434.5,107.5C 434.977,106.522 435.643,105.689 436.5,105C 430.777,104.938 425.943,104.104 422,102.5C 418.405,102.719 414.905,103.386 411.5,104.5C 410.707,104.069 409.873,103.735 409,103.5C 406.632,104.717 404.132,105.551 401.5,106C 391.735,106.257 382.068,106.924 372.5,108C 374.377,105.894 376.71,104.561 379.5,104C 504.824,82.4483 612.657,115.948 703,204.5C 765.029,270.268 797.696,348.601 801,439.5C 798.678,427.583 796.345,415.583 794,403.5C 793.577,404.956 792.744,405.456 791.5,405C 788.903,400.898 785.736,397.398 782,394.5C 779.423,403.493 774.923,411.327 768.5,418C 765.702,418.561 763.869,417.394 763,414.5C 761.619,416.635 760.619,418.968 760,421.5C 758.981,422.687 757.814,423.687 756.5,424.5C 753.859,423.29 751.193,423.29 748.5,424.5C 746.056,423.233 743.723,421.733 741.5,420C 739.888,419.28 738.388,419.446 737,420.5C 736.333,422.833 736.333,425.167 737,427.5C 742.173,430.806 746.839,434.806 751,439.5C 751.333,437.833 751.667,436.167 752,434.5C 753.667,437.167 755.333,439.833 757,442.5C 758.7,439.48 760.366,436.48 762,433.5C 762.333,428.167 762.667,422.833 763,417.5C 764.931,421.04 767.098,424.374 769.5,427.5C 770.48,426.019 771.647,424.685 773,423.5C 774.333,424.833 775.667,426.167 777,427.5C 779.62,445.439 776.954,462.439 769,478.5C 768.667,480.833 768.333,483.167 768,485.5C 764.451,491.93 761.451,498.596 759,505.5C 754.99,509.52 751.99,514.187 750,519.5C 748.981,520.687 747.814,521.687 746.5,522.5C 742.679,517.855 740.179,512.522 739,506.5C 735.379,504.602 732.212,502.102 729.5,499C 727.285,497.956 724.952,497.29 722.5,497C 720.938,492.009 718.105,487.843 714,484.5C 712.132,485.672 710.298,485.505 708.5,484C 704.229,478.291 698.729,474.458 692,472.5C 691.506,474.134 691.34,475.801 691.5,477.5C 689.079,477.122 686.746,476.455 684.5,475.5 Z M 711.5,234.5 C 713.16,236.248 715.16,236.748 717.5,236C 715.795,233.572 713.795,233.072 711.5,234.5 Z M 720.5,264.5 C 722.474,267.77 724.474,271.103 726.5,274.5C 726.315,270.44 724.648,266.773 721.5,263.5C 720.893,263.624 720.56,263.957 720.5,264.5 Z M 708.5,304.5 C 707.524,310.305 709.024,315.305 713,319.5C 713.667,318.833 714.333,318.167 715,317.5C 714.975,312.116 712.808,307.783 708.5,304.5 Z M 715.5,604.5 C 712.896,606.6 710.396,608.933 708,611.5C 707.132,614.485 706.799,617.485 707,620.5C 711.614,616.112 715.114,610.945 717.5,605C 716.906,604.536 716.239,604.369 715.5,604.5 Z M 695.5,632.5 C 695.335,635.518 695.502,638.518 696,641.5C 696.826,643.405 697.993,643.739 699.5,642.5C 698.083,639.109 696.75,635.775 695.5,632.5 Z M 709.5,651.5 C 707.577,653.201 707.243,655.201 708.5,657.5C 709.466,655.604 709.799,653.604 709.5,651.5 Z M 544.5,658.5 C 544.389,659.117 544.056,659.617 543.5,660C 546.952,662.949 547.285,662.449 544.5,658.5 Z"/></g>
<g><path style="opacity:1" fill="#f1f3f4" d="M 216.5,98.5 C 218.308,98.4914 219.975,98.9914 221.5,100C 229.517,106.674 238.183,112.341 247.5,117C 244.308,119.692 240.975,122.192 237.5,124.5C 236.548,123.467 236.548,122.3 237.5,121C 236.256,118.618 234.423,116.785 232,115.5C 228.528,117.479 225.362,119.812 222.5,122.5C 223.189,124.444 223.689,126.444 224,128.5C 225.399,129.227 226.899,129.727 228.5,130C 226.155,132.202 223.489,133.702 220.5,134.5C 218.953,123.263 216.953,112.096 214.5,101C 215.056,99.9889 215.722,99.1556 216.5,98.5 Z"/></g>
<g><path style="opacity:1" fill="#f0f2f4" d="M 687.5,103.5 C 690.982,105.748 694.316,108.248 697.5,111C 695.598,111.199 694.098,112.033 693,113.5C 692.333,117.167 692.333,120.833 693,124.5C 696.525,122.933 700.025,121.267 703.5,119.5C 703.833,118.167 704.167,116.833 704.5,115.5C 706.833,117.333 709.167,119.167 711.5,121C 704.542,122.876 697.875,125.543 691.5,129C 689.548,131.074 687.715,133.241 686,135.5C 685.761,137.761 685.594,139.761 685.5,141.5C 681.854,139.183 678.52,136.516 675.5,133.5C 676.582,133.251 677.915,133.085 679.5,133C 681.452,130.926 683.285,128.759 685,126.5C 686.329,118.893 687.162,111.226 687.5,103.5 Z"/></g>
<g><path style="opacity:1" fill="#2a4760" d="M 218.5,107.5 C 218.56,106.957 218.893,106.624 219.5,106.5C 221.833,108 224.167,109.5 226.5,111C 228.007,111.837 228.507,113.004 228,114.5C 226.172,116.081 224.172,117.415 222,118.5C 220.691,114.746 219.525,111.079 218.5,107.5 Z"/></g>
<g><path style="opacity:0.649" fill="#8b8c8b" d="M 433.5,110.5 C 436.247,110.187 438.914,110.52 441.5,111.5C 438.244,112.751 434.91,113.751 431.5,114.5C 431.167,114.167 430.833,113.833 430.5,113.5C 431.77,112.712 432.77,111.712 433.5,110.5 Z"/></g>
<g><path style="opacity:0.822" fill="#878886" d="M 406.5,115.5 C 436.642,114.4 436.642,116.734 406.5,122.5C 406.105,120.626 404.772,119.126 402.5,118C 403.858,117.066 405.192,116.232 406.5,115.5 Z"/></g>
<g><path style="opacity:1" fill="#f0f2f4" d="M 187.5,120.5 C 188.043,120.56 188.376,120.893 188.5,121.5C 186.089,123.319 185.922,125.319 188,127.5C 192.716,133.094 197.549,138.594 202.5,144C 208.869,143.614 211.702,140.114 211,133.5C 215.81,137.253 215.643,140.753 210.5,144C 205.729,147.138 201.229,150.638 197,154.5C 197.988,152.08 197.655,149.747 196,147.5C 191.047,141.759 186.214,135.926 181.5,130C 179.915,129.915 178.582,129.749 177.5,129.5C 180.879,126.449 184.212,123.449 187.5,120.5 Z"/></g>
<g><path style="opacity:1" fill="#f1f3f5" d="M 714.5,129.5 C 717.941,129.301 721.274,129.801 724.5,131C 727.017,133.349 729.35,135.849 731.5,138.5C 730.185,140.316 728.685,141.983 727,143.5C 727,141.5 727,139.5 727,137.5C 725.5,136 724,134.5 722.5,133C 719.229,132.308 717.229,133.641 716.5,137C 719.345,142.186 720.511,147.686 720,153.5C 717.081,159.025 712.581,160.858 706.5,159C 702.821,156.654 699.821,153.654 697.5,150C 700.953,142.639 702.453,142.805 702,150.5C 704.566,155.758 708.233,156.758 713,153.5C 712.926,148.09 712.093,142.757 710.5,137.5C 710.667,136.167 710.833,134.833 711,133.5C 712.376,132.295 713.542,130.962 714.5,129.5 Z"/></g>
<g><path style="opacity:0.818" fill="#888987" d="M 421.5,132.5 C 426.543,133.008 431.543,133.842 436.5,135C 429.954,135.908 423.621,137.575 417.5,140C 407.782,141.608 398.115,141.274 388.5,139C 399.823,137.794 410.823,135.627 421.5,132.5 Z"/></g>
<g><path style="opacity:1" fill="#f0f2f4" d="M 738.5,145.5 C 745.479,151.812 752.146,158.479 758.5,165.5C 757.101,168.099 755.101,169.599 752.5,170C 754.85,167.627 755.017,165.127 753,162.5C 751.867,160.789 750.367,160.289 748.5,161C 743.635,166.2 738.468,171.033 733,175.5C 731.956,177.715 731.29,180.048 731,182.5C 727.833,179.333 724.667,176.167 721.5,173C 723.207,172.805 724.874,172.805 726.5,173C 732.333,167.167 738.167,161.333 744,155.5C 743.805,153.255 742.638,151.422 740.5,150C 738.536,149.376 736.869,149.876 735.5,151.5C 735.167,151.167 734.833,150.833 734.5,150.5C 735.857,148.814 737.19,147.148 738.5,145.5 Z"/></g>
<g><path style="opacity:0.816" fill="#898a88" d="M 401.5,153.5 C 400.571,152.685 399.571,151.852 398.5,151C 401.558,150.542 404.558,150.876 407.5,152C 412.833,154.667 418.167,157.333 423.5,160C 421.673,160.899 420.34,162.233 419.5,164C 419.905,164.945 420.572,165.612 421.5,166C 419.983,167.508 418.149,168.342 416,168.5C 413.176,167.946 410.343,167.446 407.5,167C 406.313,165.981 405.313,164.814 404.5,163.5C 405.833,162.38 406.333,161.047 406,159.5C 402.086,157.46 398.252,155.293 394.5,153C 396.847,152.666 399.181,152.833 401.5,153.5 Z"/></g>
<g><path style="opacity:1" fill="#eceef1" d="M 153.5,150.5 C 155.729,151.055 157.395,152.389 158.5,154.5C 146.816,156.578 145.816,161.245 155.5,168.5C 159.928,166.316 161.761,162.983 161,158.5C 163.643,159.976 165.81,161.976 167.5,164.5C 163.273,165.216 159.94,167.383 157.5,171C 160.384,174.586 163.717,177.252 167.5,179C 169.333,177.167 171.167,175.333 173,173.5C 172.736,164.963 174.236,164.463 177.5,172C 172.697,177.971 167.363,183.471 161.5,188.5C 161.346,187.091 161.179,185.424 161,183.5C 155.453,177.653 149.62,172.153 143.5,167C 142.167,166.667 140.833,166.333 139.5,166C 144.004,160.664 148.671,155.497 153.5,150.5 Z"/></g>
<g><path style="opacity:0.9" fill="#888987" d="M 462.5,161.5 C 466.774,161.185 471.108,162.018 475.5,164C 488.483,179.319 504.149,190.986 522.5,199C 526.167,199.333 529.833,199.667 533.5,200C 535.007,200.837 535.507,202.004 535,203.5C 526.784,207.581 518.618,207.415 510.5,203C 501.044,195.549 491.044,188.882 480.5,183C 477.333,179.833 474.167,176.667 471,173.5C 471.118,168.948 468.952,166.115 464.5,165C 463.915,163.698 463.249,162.531 462.5,161.5 Z"/></g>
<g><path style="opacity:0.962" fill="#888987" d="M 191.5,236.5 C 193.148,235.19 194.814,233.857 196.5,232.5C 197.298,234.078 197.798,235.744 198,237.5C 199.097,231.725 201.931,227.059 206.5,223.5C 207.086,223.709 207.586,224.043 208,224.5C 208.685,221.943 210.185,220.109 212.5,219C 210.993,218.163 210.493,216.996 211,215.5C 213.167,213.333 215.333,211.167 217.5,209C 225.662,204.753 233.662,200.253 241.5,195.5C 242.5,195.833 243.167,196.5 243.5,197.5C 235.795,206.368 227.961,215.034 220,223.5C 219.333,224.5 219.333,225.5 220,226.5C 222.862,224.746 225.695,223.079 228.5,221.5C 229.614,222.723 229.781,224.056 229,225.5C 226.33,228.25 223.164,230.083 219.5,231C 213.333,237.167 207.167,243.333 201,249.5C 198.411,255.016 195.078,260.016 191,264.5C 190.667,263.5 190.333,262.5 190,261.5C 188.458,267.669 185.624,268.669 181.5,264.5C 179.576,269.021 177.576,273.521 175.5,278C 176.849,278.772 177.682,279.939 178,281.5C 178.956,280.421 179.789,279.255 180.5,278C 181.784,277.316 182.951,277.483 184,278.5C 184.21,275.766 185.044,273.266 186.5,271C 188.833,269.5 191.167,268 193.5,266.5C 194.192,267.025 194.692,267.692 195,268.5C 199.364,262.97 204.198,257.97 209.5,253.5C 208.153,254.028 206.819,254.195 205.5,254C 209.428,246.809 214.095,240.142 219.5,234C 220.76,232.887 221.927,232.72 223,233.5C 225.112,230.716 227.779,228.716 231,227.5C 232.28,227.613 233.113,228.28 233.5,229.5C 232.37,230.622 231.703,231.956 231.5,233.5C 232.708,232.766 234.041,232.433 235.5,232.5C 235.664,235.187 235.497,237.854 235,240.5C 228.178,245.81 221.012,250.476 213.5,254.5C 208.707,262.447 203.207,269.78 197,276.5C 196.685,278.586 196.185,280.586 195.5,282.5C 196.097,282.735 196.43,283.235 196.5,284C 196,285.5 195.5,287 195,288.5C 191.781,292.052 188.948,295.885 186.5,300C 187.167,300.667 187.833,300.667 188.5,300C 194.075,294.256 199.741,288.756 205.5,283.5C 202.572,277.413 203.739,272.079 209,267.5C 213.559,260.554 220.059,253.721 228.5,247C 230.909,245.293 233.575,244.46 236.5,244.5C 237.035,247.238 236.035,249.072 233.5,250C 238.467,249.221 241.133,251.221 241.5,256C 241.35,260.492 239.35,263.659 235.5,265.5C 234.965,271.509 234.299,277.509 233.5,283.5C 233.505,285.696 233.838,287.696 234.5,289.5C 228.562,292.806 222.562,296.139 216.5,299.5C 216.167,304 215.833,308.5 215.5,313C 216.184,328.502 216.851,344.002 217.5,359.5C 216.681,356.695 216.181,353.695 216,350.5C 215.333,349.833 214.667,349.167 214,348.5C 213.667,344.167 213.333,339.833 213,335.5C 212,337.5 211,339.5 210,341.5C 209.667,347.833 209.333,354.167 209,360.5C 207.654,363.87 205.821,366.87 203.5,369.5C 202.099,366.135 200.599,362.801 199,359.5C 198.393,362.202 198.56,364.868 199.5,367.5C 198.652,375.014 196.485,375.347 193,368.5C 190.896,364.518 189.396,360.352 188.5,356C 189.5,355 190.5,354 191.5,353C 190.718,350.26 190.218,347.426 190,344.5C 187.619,343.565 185.119,343.232 182.5,343.5C 182.337,341.143 182.503,338.81 183,336.5C 185.043,334.792 186.71,332.792 188,330.5C 189.33,334.007 191.83,335.673 195.5,335.5C 195.687,333.436 196.187,331.436 197,329.5C 200.035,326.13 203.368,323.13 207,320.5C 207.791,319.255 208.291,317.922 208.5,316.5C 205.623,314.386 202.789,314.719 200,317.5C 199.828,312.181 202.328,308.848 207.5,307.5C 208.31,309.798 209.144,312.132 210,314.5C 211.56,311.95 211.06,309.617 208.5,307.5C 209.695,306.033 209.695,304.533 208.5,303C 211.615,300.029 213.281,296.362 213.5,292C 212.584,291.626 211.75,291.126 211,290.5C 210.577,291.956 209.744,292.456 208.5,292C 207.914,289.72 207.08,287.553 206,285.5C 206.335,291.499 204.501,296.666 200.5,301C 199.175,300.852 198.008,301.018 197,301.5C 195.881,309.779 191.381,315.112 183.5,317.5C 182.09,317.132 181.09,316.299 180.5,315C 181.711,314.107 181.711,313.274 180.5,312.5C 179.859,314.296 178.859,315.796 177.5,317C 178.022,317.561 178.355,318.228 178.5,319C 177.428,326.838 176.261,334.671 175,342.5C 173.921,344.394 172.587,344.727 171,343.5C 170.626,341.102 170.626,338.769 171,336.5C 168.925,339.961 166.092,341.294 162.5,340.5C 164.151,338.598 164.484,336.598 163.5,334.5C 166.663,331.683 168.996,328.35 170.5,324.5C 168.484,326.348 166.317,328.015 164,329.5C 163.055,329.095 162.388,328.428 162,327.5C 159.167,329 157,331.167 155.5,334C 144.874,338.808 137.208,346.975 132.5,358.5C 133.14,364.096 131.807,369.263 128.5,374C 130.768,375.558 131.934,377.724 132,380.5C 132.289,387.208 132.955,393.875 134,400.5C 135.733,402.723 137.233,405.056 138.5,407.5C 136.925,412.061 135.258,416.561 133.5,421C 136.384,422.037 137.05,423.871 135.5,426.5C 134.914,426.291 134.414,425.957 134,425.5C 133.146,429.625 133.48,433.625 135,437.5C 136,436.5 137,435.5 138,434.5C 139.287,427.442 140.787,420.442 142.5,413.5C 145.53,412.568 148.363,411.235 151,409.5C 155.159,401.709 157.159,393.376 157,384.5C 159.374,382.461 161.374,380.128 163,377.5C 165.667,370.833 168.333,364.167 171,357.5C 171.739,356.426 172.739,355.759 174,355.5C 176.063,358.22 178.73,360.22 182,361.5C 181.566,367.573 183.066,372.906 186.5,377.5C 181.922,384.687 180.422,392.354 182,400.5C 183.073,401.28 184.24,401.113 185.5,400C 189.714,395.454 193.547,390.621 197,385.5C 196.652,395.346 196.819,405.179 197.5,415C 197.443,417.728 196.443,420.061 194.5,422C 196.081,424.998 197.247,428.165 198,431.5C 200.41,434.281 203.243,436.615 206.5,438.5C 205.5,439.333 204.5,440.167 203.5,441C 205.037,442.11 205.703,443.61 205.5,445.5C 206.822,445.33 207.989,445.663 209,446.5C 209.238,450.848 208.905,455.181 208,459.5C 204.7,461.557 204.867,462.557 208.5,462.5C 207.798,465.578 206.798,468.578 205.5,471.5C 206.832,475.548 209.666,477.548 214,477.5C 214.651,479.235 214.485,480.902 213.5,482.5C 214.167,483.167 214.833,483.833 215.5,484.5C 214.37,485.622 213.703,486.956 213.5,488.5C 214.397,487.402 215.23,487.402 216,488.5C 216.741,491.562 216.575,494.562 215.5,497.5C 210.401,499.217 208.234,497.55 209,492.5C 207.136,495.207 204.636,496.041 201.5,495C 203.394,493.921 203.727,492.587 202.5,491C 199.211,490.118 195.877,489.452 192.5,489C 191.484,488.481 190.818,487.647 190.5,486.5C 193.728,479.712 197.228,473.046 201,466.5C 205.288,462.608 204.121,461.441 197.5,463C 195.811,466.692 192.977,468.859 189,469.5C 184.879,468.261 180.712,467.261 176.5,466.5C 171.803,461.916 168.137,462.583 165.5,468.5C 162.313,469.027 159.98,470.693 158.5,473.5C 161.142,472.147 163.976,471.481 167,471.5C 172.257,471.089 174.257,473.422 173,478.5C 170.317,479.893 170.15,481.226 172.5,482.5C 171.415,485.773 171.248,489.106 172,492.5C 172.383,493.056 172.883,493.389 173.5,493.5C 173.62,492.414 174.287,491.747 175.5,491.5C 177.197,491.899 178.863,492.399 180.5,493C 178.986,494.439 178.653,495.939 179.5,497.5C 181.167,495.5 182.833,493.5 184.5,491.5C 185.833,493.833 187.167,496.167 188.5,498.5C 188.291,499.086 187.957,499.586 187.5,500C 182.441,502.603 177.107,504.603 171.5,506C 169.957,508.948 167.79,509.782 165,508.5C 164.518,505.093 164.518,501.76 165,498.5C 164.308,499.025 163.808,499.692 163.5,500.5C 159.506,501.665 155.506,502.832 151.5,504C 150.833,505 150.167,506 149.5,507C 150.347,509.718 151.347,512.384 152.5,515C 148.594,517.186 144.427,518.686 140,519.5C 136.312,528.813 134.645,538.479 135,548.5C 131.274,551.131 128.107,554.298 125.5,558C 128.864,569.925 132.531,581.758 136.5,593.5C 136.192,594.308 135.692,594.975 135,595.5C 128.118,581.148 121.451,566.814 115,552.5C 113.605,553.815 112.605,553.481 112,551.5C 80.1428,434.802 100.143,328.136 172,231.5C 191.907,206.925 214.407,185.092 239.5,166C 243.912,165.212 248.079,163.712 252,161.5C 252.426,163.015 253.926,164.015 256.5,164.5C 255.5,165.833 254.5,167.167 253.5,168.5C 245.326,173.753 237.326,179.253 229.5,185C 221.833,192 214.167,199 206.5,206C 207.767,207.796 207.767,209.629 206.5,211.5C 207.376,212.251 208.376,212.751 209.5,213C 206.631,216.204 203.465,219.037 200,221.5C 197.157,226.523 194.323,231.523 191.5,236.5 Z M 225.5,238.5 C 223.972,238.517 223.472,239.184 224,240.5C 224.717,239.956 225.217,239.289 225.5,238.5 Z M 180.5,252.5 C 180.5,254.167 180.5,255.833 180.5,257.5C 181.822,257.67 182.989,257.337 184,256.5C 184.692,257.025 185.192,257.692 185.5,258.5C 183.647,258.92 181.813,259.253 180,259.5C 179.5,260.5 179,261.5 178.5,262.5C 179.602,263.176 180.602,263.842 181.5,264.5C 179.22,264.746 177.22,264.746 175.5,264.5C 176.167,263.5 176.833,262.5 177.5,261.5C 175.072,257.923 175.572,254.59 179,251.5C 179.383,252.056 179.883,252.389 180.5,252.5 Z M 235.5,265.5 C 235.217,264.711 234.717,264.044 234,263.5C 232.164,265.131 232.664,265.798 235.5,265.5 Z M 183.5,280.5 C 183.249,282.17 182.582,283.67 181.5,285C 184.481,285.381 186.481,284.048 187.5,281C 186.041,281.355 184.707,281.189 183.5,280.5 Z M 197.5,342.5 C 197.047,343.458 196.381,344.292 195.5,345C 196.448,345.483 197.448,345.649 198.5,345.5C 198.737,344.209 198.404,343.209 197.5,342.5 Z M 166.5,427.5 C 165.145,429.68 165.311,431.68 167,433.5C 167.333,432.167 167.667,430.833 168,429.5C 168.654,430.696 169.154,430.696 169.5,429.5C 168.995,428.081 167.995,427.415 166.5,427.5 Z M 182.5,435.5 C 181.432,436.434 180.099,436.768 178.5,436.5C 178.351,437.552 178.517,438.552 179,439.5C 180.604,438.351 182.27,438.351 184,439.5C 184.5,439.167 185,438.833 185.5,438.5C 184.452,437.452 183.452,436.452 182.5,435.5 Z M 113.5,439.5 C 111.664,441.009 109.664,442.509 107.5,444C 108.38,445.356 108.714,446.856 108.5,448.5C 110.199,448.34 111.866,448.506 113.5,449C 112.446,450.388 112.28,451.888 113,453.5C 114.333,455.5 115.667,457.5 117,459.5C 117.405,453.807 117.072,448.141 116,442.5C 115.623,441.058 114.79,440.058 113.5,439.5 Z M 194.5,444.5 C 194.369,445.239 194.536,445.906 195,446.5C 197.168,445.178 197.001,444.511 194.5,444.5 Z M 150.5,449.5 C 148.972,449.517 148.472,450.184 149,451.5C 149.717,450.956 150.217,450.289 150.5,449.5 Z M 112.5,461.5 C 111.106,463.951 110.272,466.618 110,469.5C 109.076,489.302 110.076,489.302 113,469.5C 114,468.167 115,466.833 116,465.5C 118.582,469.908 119.082,474.574 117.5,479.5C 119.067,481.896 119.9,484.563 120,487.5C 120.692,484.064 121.692,480.73 123,477.5C 124.044,478.623 124.71,479.956 125,481.5C 125.139,472.106 120.972,465.44 112.5,461.5 Z M 127.5,489.5 C 127.196,490.15 126.863,490.817 126.5,491.5C 128.5,492.833 130.5,494.167 132.5,495.5C 133.429,494.311 133.762,492.978 133.5,491.5C 131.315,491.296 129.315,490.63 127.5,489.5 Z M 117.5,493.5 C 117.33,494.822 117.663,495.989 118.5,497C 121.303,497.755 123.97,497.422 126.5,496C 123.603,493.966 120.603,493.133 117.5,493.5 Z"/></g>
<g><path style="opacity:0.979" fill="#888987" d="M 323.5,174.5 C 325.017,174.489 326.184,173.823 327,172.5C 328,173.833 329,175.167 330,176.5C 332.186,170.328 335.853,165.328 341,161.5C 345.688,166.866 347.021,172.866 345,179.5C 343.933,180.191 342.766,180.691 341.5,181C 342.381,181.708 343.047,182.542 343.5,183.5C 344.824,182.15 345.824,182.317 346.5,184C 345.521,186.433 344.855,188.933 344.5,191.5C 345.892,189.727 347.059,187.727 348,185.5C 351.544,182.68 354.044,183.514 355.5,188C 351.552,200.784 348.885,213.784 347.5,227C 349.636,229.9 351.303,233.066 352.5,236.5C 356.45,234.961 360.45,233.628 364.5,232.5C 364.389,233.117 364.056,233.617 363.5,234C 357.831,235.946 352.164,237.779 346.5,239.5C 346.167,238.167 345.833,238.167 345.5,239.5C 320.452,249.852 295.452,260.519 270.5,271.5C 273.206,263.213 276.206,255.047 279.5,247C 278.744,244.144 277.911,241.311 277,238.5C 274.959,239.423 272.792,239.756 270.5,239.5C 270.506,235.449 272.006,232.116 275,229.5C 275.333,228.167 275.667,226.833 276,225.5C 278.378,224.089 280.878,222.923 283.5,222C 282.376,221.751 281.376,221.251 280.5,220.5C 281.846,217.145 283.18,213.812 284.5,210.5C 277.617,213.382 272.284,218.048 268.5,224.5C 266.105,227.369 263.105,228.536 259.5,228C 260.357,227.311 261.023,226.478 261.5,225.5C 259.441,224.049 258.441,222.049 258.5,219.5C 254.688,220.663 252.688,223.33 252.5,227.5C 254.958,227.227 256.625,228.227 257.5,230.5C 256.233,234.944 253.9,238.777 250.5,242C 246.233,244.125 243.066,242.959 241,238.5C 240.31,234.974 240.81,231.64 242.5,228.5C 241.414,228.38 240.747,227.713 240.5,226.5C 241.092,224.577 242.092,222.911 243.5,221.5C 242.402,220.399 242.235,219.066 243,217.5C 244.376,216.295 245.542,214.962 246.5,213.5C 243.833,212.167 241.167,210.833 238.5,209.5C 238.973,205.362 241.307,203.362 245.5,203.5C 245.343,202.127 245.51,200.793 246,199.5C 249.866,196.665 253.366,193.498 256.5,190C 258.833,189.667 261.167,189.333 263.5,189C 262.376,188.751 261.376,188.251 260.5,187.5C 261.648,185.851 262.981,184.351 264.5,183C 271.082,179.149 277.749,177.649 284.5,178.5C 282.033,182.516 278.533,185.516 274,187.5C 273.517,186.552 273.351,185.552 273.5,184.5C 268.379,186.055 264.379,189.055 261.5,193.5C 262.847,192.972 264.181,192.805 265.5,193C 262.292,196.377 258.958,199.544 255.5,202.5C 256.002,203.521 256.668,203.688 257.5,203C 258.667,201.167 260.167,199.667 262,198.5C 262.617,199.449 262.451,200.282 261.5,201C 262.308,201.308 262.975,201.808 263.5,202.5C 261.565,203.213 261.232,204.213 262.5,205.5C 263.15,205.196 263.817,204.863 264.5,204.5C 265.51,207.026 264.843,209.192 262.5,211C 263,211.5 263.5,212 264,212.5C 265.399,211.773 266.899,211.273 268.5,211C 269.252,210.329 269.586,209.496 269.5,208.5C 270.167,208.5 270.5,208.167 270.5,207.5C 272.053,205.615 274.053,204.615 276.5,204.5C 276.993,202.194 277.326,199.861 277.5,197.5C 275.821,197.715 274.821,197.048 274.5,195.5C 272.757,192.4 273.757,190.567 277.5,190C 280.751,185.274 284.751,181.441 289.5,178.5C 290.167,178.5 290.5,178.167 290.5,177.5C 292.436,176.741 294.269,175.741 296,174.5C 296.5,174.833 297,175.167 297.5,175.5C 294.662,178.838 291.495,181.838 288,184.5C 287.209,185.745 286.709,187.078 286.5,188.5C 300.164,175.687 315.164,164.521 331.5,155C 332.635,154.251 333.635,154.417 334.5,155.5C 332.098,162.647 328.431,168.981 323.5,174.5 Z M 284.5,178.5 C 284.369,179.376 284.702,180.043 285.5,180.5C 286.622,179.37 287.956,178.703 289.5,178.5C 284.751,181.441 280.751,185.274 277.5,190C 273.757,190.567 272.757,192.4 274.5,195.5C 274.821,197.048 275.821,197.715 277.5,197.5C 277.326,199.861 276.993,202.194 276.5,204.5C 274.053,204.615 272.053,205.615 270.5,207.5C 269.133,205.115 267.799,205.448 266.5,208.5C 267.425,209.562 268.425,209.562 269.5,208.5C 269.586,209.496 269.252,210.329 268.5,211C 266.899,211.273 265.399,211.773 264,212.5C 263.5,212 263,211.5 262.5,211C 264.843,209.192 265.51,207.026 264.5,204.5C 263.817,204.863 263.15,205.196 262.5,205.5C 261.232,204.213 261.565,203.213 263.5,202.5C 262.975,201.808 262.308,201.308 261.5,201C 262.451,200.282 262.617,199.449 262,198.5C 260.167,199.667 258.667,201.167 257.5,203C 256.668,203.688 256.002,203.521 255.5,202.5C 258.958,199.544 262.292,196.377 265.5,193C 264.181,192.805 262.847,192.972 261.5,193.5C 264.379,189.055 268.379,186.055 273.5,184.5C 273.351,185.552 273.517,186.552 274,187.5C 278.533,185.516 282.033,182.516 284.5,178.5 Z M 286.5,208.5 C 289.897,206.472 293.564,204.972 297.5,204C 301.783,199.667 304.949,194.833 307,189.5C 304.189,193.658 300.355,196.158 295.5,197C 292.316,200.685 289.316,204.518 286.5,208.5 Z M 246.5,213.5 C 247.552,213.649 248.552,213.483 249.5,213C 248.273,211.413 248.606,210.079 250.5,209C 249.551,208.383 248.718,208.549 248,209.5C 247.59,210.901 247.09,212.234 246.5,213.5 Z M 257.5,210.5 C 255.957,215.582 252.957,219.582 248.5,222.5C 248.995,220.518 249.495,218.518 250,216.5C 252.663,214.666 255.163,212.666 257.5,210.5 Z"/></g>
<g><path style="opacity:0.725" fill="#898986" d="M 515.5,171.5 C 512.32,172.763 509.653,171.929 507.5,169C 509.5,168.333 511.5,168.333 513.5,169C 514.756,169.417 515.423,170.25 515.5,171.5 Z"/></g>
<g><path style="opacity:1" fill="#eef0f2" d="M 775.5,169.5 C 778.286,169.956 779.619,171.623 779.5,174.5C 779.17,177.324 778.336,179.991 777,182.5C 775.569,178.365 775.069,174.032 775.5,169.5 Z"/></g>
<g><path style="opacity:0.575" fill="#878887" d="M 290.5,177.5 C 289.833,177.5 289.5,177.833 289.5,178.5C 287.956,178.703 286.622,179.37 285.5,180.5C 284.702,180.043 284.369,179.376 284.5,178.5C 286.235,176.765 288.235,175.432 290.5,174.5C 291.167,174.667 291.833,174.833 292.5,175C 291.619,175.708 290.953,176.542 290.5,177.5 Z"/></g>
<g><path style="opacity:1" fill="#eff1f3" d="M 765.5,173.5 C 770.691,178.526 775.357,184.026 779.5,190C 778.73,192.978 777.063,193.811 774.5,192.5C 775.577,187.985 773.91,184.652 769.5,182.5C 766.65,184.427 763.983,186.594 761.5,189C 763.36,192.867 766.36,195.2 770.5,196C 768.833,197.667 767.167,199.333 765.5,201C 764.668,201.688 764.002,201.521 763.5,200.5C 764.428,199.232 764.595,197.899 764,196.5C 762.471,195.271 761.304,193.771 760.5,192C 756.212,192.998 752.545,195.331 749.5,199C 752.007,204.016 756.007,206.849 761.5,207.5C 760.451,209.112 758.951,210.112 757,210.5C 754.384,208.888 752.05,206.888 750,204.5C 746.975,200.976 744.142,197.309 741.5,193.5C 743.382,193.845 745.382,193.345 747.5,192C 753.333,186.833 759.167,181.667 765,176.5C 765.483,175.552 765.649,174.552 765.5,173.5 Z"/></g>
<g><path style="opacity:1" fill="#f2f4f5" d="M 131.5,178.5 C 140.402,178.228 146.569,182.228 150,190.5C 151.225,196.268 150.225,201.601 147,206.5C 143.333,210.833 139.667,215.167 136,219.5C 135.508,218.451 135.674,217.451 136.5,216.5C 129.574,210.032 122.24,204.032 114.5,198.5C 113.522,198.977 112.689,199.643 112,200.5C 116.444,191.544 122.944,184.21 131.5,178.5 Z"/></g>
<g><path style="opacity:0.931" fill="#888987" d="M 421.5,213.5 C 418.659,214.669 415.659,215.669 412.5,216.5C 411.833,216.5 411.167,216.5 410.5,216.5C 405.685,212.53 400.685,208.697 395.5,205C 392.269,202.273 389.603,199.106 387.5,195.5C 391.879,191.405 392.879,186.738 390.5,181.5C 391,181.167 391.5,180.833 392,180.5C 396.182,181.134 400.349,181.801 404.5,182.5C 406.658,185.148 407.992,188.148 408.5,191.5C 406.345,191.372 404.345,191.872 402.5,193C 408.333,196.055 414.333,198.722 420.5,201C 421.669,203.007 422.335,205.173 422.5,207.5C 418.09,208.377 414.757,206.877 412.5,203C 411.833,202.333 411.167,202.333 410.5,203C 412.248,206.499 414.248,209.832 416.5,213C 418.134,213.494 419.801,213.66 421.5,213.5 Z"/></g>
<g><path style="opacity:1" fill="#23415b" d="M 128.5,184.5 C 137.927,185.095 143.927,189.929 146.5,199C 145.63,202.739 143.964,206.072 141.5,209C 139.721,208.956 138.055,208.289 136.5,207C 131.425,202.713 126.258,198.547 121,194.5C 120.333,193.5 120.333,192.5 121,191.5C 123.396,188.933 125.896,186.6 128.5,184.5 Z"/></g>
<g><path style="opacity:0.655" fill="#908481" d="M 432.5,187.5 C 431.957,187.56 431.624,187.893 431.5,188.5C 432.63,189.622 433.297,190.956 433.5,192.5C 431.33,191.162 429.664,189.328 428.5,187C 430.066,186.235 431.399,186.402 432.5,187.5 Z"/></g>
<g><path style="opacity:1" fill="#a4282f" d="M 432.5,187.5 C 444.101,190.367 455.434,194.034 466.5,198.5C 475.96,203.323 485.96,206.99 496.5,209.5C 508.244,213.637 519.911,217.97 531.5,222.5C 531.5,223.167 531.833,223.5 532.5,223.5C 534.954,224.227 537.287,225.227 539.5,226.5C 541.833,227.167 544.167,227.833 546.5,228.5C 547.167,228.5 547.5,228.833 547.5,229.5C 575.985,242.407 604.318,255.907 632.5,270C 649.658,278.407 665.991,288.074 681.5,299C 682.285,312.096 682.285,325.262 681.5,338.5C 681.5,341.167 681.5,343.833 681.5,346.5C 679.9,358.663 678.566,370.996 677.5,383.5C 677.5,384.833 677.5,386.167 677.5,387.5C 674.834,402.828 672.168,418.161 669.5,433.5C 669.007,435.806 668.674,438.139 668.5,440.5C 667.262,442.214 666.595,444.214 666.5,446.5C 664.102,457.025 661.102,467.358 657.5,477.5C 644.366,515.113 625.532,549.447 601,580.5C 568.176,620.161 531.342,655.494 490.5,686.5C 469.584,702.4 447.584,716.733 424.5,729.5C 424.5,728.833 424.5,728.167 424.5,727.5C 430.433,719.561 436.766,711.895 443.5,704.5C 446.19,702.807 448.19,700.473 449.5,697.5C 451.262,696.738 452.262,695.404 452.5,693.5C 487.423,647.323 513.089,596.323 529.5,540.5C 530.924,538.485 531.59,536.152 531.5,533.5C 531.678,530.784 532.178,528.117 533,525.5C 546.888,525.09 560.555,527.09 574,531.5C 576.625,530.25 577.625,528.25 577,525.5C 574.331,522 571.498,518.667 568.5,515.5C 568.262,513.596 567.262,512.262 565.5,511.5C 564.5,511.167 563.833,510.5 563.5,509.5C 563.573,507.973 562.906,506.973 561.5,506.5C 560.5,506.167 559.833,505.5 559.5,504.5C 559.759,502.011 558.759,500.344 556.5,499.5C 554.076,496.992 552.41,493.992 551.5,490.5C 551.598,488.447 550.931,486.78 549.5,485.5C 547.399,482.203 546.065,478.537 545.5,474.5C 546.01,471.612 545.344,469.279 543.5,467.5C 543.5,466.5 543.5,465.5 543.5,464.5C 543.5,454.5 543.5,444.5 543.5,434.5C 545.654,417.039 550.988,400.706 559.5,385.5C 561.408,384.514 562.408,382.848 562.5,380.5C 567.137,371.229 572.304,362.229 578,353.5C 578.755,350.503 577.922,348.003 575.5,346C 558.58,348.011 541.58,349.511 524.5,350.5C 523.703,346.777 522.703,343.11 521.5,339.5C 521.946,336.99 521.28,334.99 519.5,333.5C 502.749,290.316 480.082,250.649 451.5,214.5C 450.306,210.637 447.973,207.637 444.5,205.5C 440.487,201.485 436.821,197.152 433.5,192.5C 433.297,190.956 432.63,189.622 431.5,188.5C 431.624,187.893 431.957,187.56 432.5,187.5 Z"/></g>
<g><path style="opacity:0.677" fill="#898a89" d="M 270.5,198.5 C 271.5,198.5 272.5,198.5 273.5,198.5C 273.405,201.272 272.071,203.272 269.5,204.5C 268.531,202.383 268.864,200.383 270.5,198.5 Z"/></g>
<g><path style="opacity:1" fill="#f0f2f4" d="M 786.5,199.5 C 789.161,202.171 791.494,205.171 793.5,208.5C 789.414,215.007 785.08,221.34 780.5,227.5C 781.167,227.833 781.833,228.167 782.5,228.5C 788.986,227.103 795.486,225.769 802,224.5C 805.254,226.26 807.754,228.926 809.5,232.5C 808.091,232.654 806.424,232.821 804.5,233C 798.5,237 792.5,241 786.5,245C 785.134,246.6 784.134,248.433 783.5,250.5C 780.553,247.109 778.386,243.442 777,239.5C 778.726,240.576 780.559,240.743 782.5,240C 787.833,236.333 793.167,232.667 798.5,229C 790.665,230.113 782.832,231.613 775,233.5C 773.272,233.546 771.772,233.046 770.5,232C 775.528,224.397 780.362,216.897 785,209.5C 779.056,213.111 773.389,217.111 768,221.5C 767.667,222.833 767.333,224.167 767,225.5C 763.982,223.121 762.315,220.121 762,216.5C 762.689,217.357 763.522,218.023 764.5,218.5C 772.258,213.872 779.758,208.872 787,203.5C 787.195,202.181 787.028,200.847 786.5,199.5 Z"/></g>
<g><path style="opacity:0.44" fill="#888987" d="M 270.5,207.5 C 269.833,207.5 269.5,207.833 269.5,208.5C 268.425,209.562 267.425,209.562 266.5,208.5C 267.799,205.448 269.133,205.115 270.5,207.5 Z"/></g>
<g><path style="opacity:0.949" fill="#a14145" d="M 466.5,198.5 C 476.729,201.796 486.729,205.462 496.5,209.5C 485.96,206.99 475.96,203.323 466.5,198.5 Z"/></g>
<g><path style="opacity:1" fill="#1e3d57" d="M 444.5,205.5 C 447.973,207.637 450.306,210.637 451.5,214.5C 433.436,230.296 417.936,248.296 405,268.5C 383.714,304.082 368.214,342.082 358.5,382.5C 340.019,392.605 320.352,399.439 299.5,403C 297.144,404.827 296.477,406.993 297.5,409.5C 298.392,412.292 300.392,413.625 303.5,413.5C 320.474,418.501 335.807,426.501 349.5,437.5C 350.118,447.296 350.785,456.963 351.5,466.5C 356.896,545.724 383.896,616.391 432.5,678.5C 435.101,682.771 438.434,686.437 442.5,689.5C 442.833,689.5 443.167,689.5 443.5,689.5C 444.912,692.559 446.912,695.225 449.5,697.5C 448.19,700.473 446.19,702.807 443.5,704.5C 373.246,667.423 316.412,615.423 273,548.5C 266.841,538.847 261.341,528.847 256.5,518.5C 256.293,515.759 255.293,513.426 253.5,511.5C 246.191,496.862 240.524,481.528 236.5,465.5C 236.59,462.848 235.924,460.515 234.5,458.5C 231.918,452.173 230.252,445.507 229.5,438.5C 229.58,435.219 228.913,432.219 227.5,429.5C 224.8,410.972 221.8,392.638 218.5,374.5C 217.836,369.527 217.503,364.527 217.5,359.5C 216.851,344.002 216.184,328.502 215.5,313C 215.833,308.5 216.167,304 216.5,299.5C 222.562,296.139 228.562,292.806 234.5,289.5C 246.182,282.992 258.182,276.992 270.5,271.5C 295.452,260.519 320.452,249.852 345.5,239.5C 345.833,239.5 346.167,239.5 346.5,239.5C 352.164,237.779 357.831,235.946 363.5,234C 364.056,233.617 364.389,233.117 364.5,232.5C 368.216,230.595 372.216,229.261 376.5,228.5C 388.784,225.072 400.784,221.072 412.5,216.5C 415.659,215.669 418.659,214.669 421.5,213.5C 429.167,210.833 436.833,208.167 444.5,205.5 Z"/></g>
<g><path style="opacity:0.992" fill="#5b6973" d="M 410.5,216.5 C 411.167,216.5 411.833,216.5 412.5,216.5C 400.784,221.072 388.784,225.072 376.5,228.5C 387.532,223.932 398.865,219.932 410.5,216.5 Z"/></g>
<g><path style="opacity:0.751" fill="#898887" d="M 539.5,226.5 C 537.287,225.227 534.954,224.227 532.5,223.5C 531.833,223.5 531.5,223.167 531.5,222.5C 530.402,221.603 530.402,220.77 531.5,220C 533.764,219.764 535.931,219.264 538,218.5C 539.252,221.014 539.752,223.68 539.5,226.5 Z"/></g>
<g><path style="opacity:1" fill="#eef0f2" d="M 93.5,225.5 C 95.9288,225.585 97.9288,226.585 99.5,228.5C 94.6681,229.282 91.6681,232.115 90.5,237C 98.8221,245.035 102.989,243.201 103,231.5C 105.333,233.006 107.5,234.673 109.5,236.5C 105.482,237.333 103.149,239.833 102.5,244C 105.158,246.758 108.324,248.925 112,250.5C 116.529,246.79 118.195,242.123 117,236.5C 118.154,237.743 119.488,238.743 121,239.5C 118.709,247.078 115.042,254.078 110,260.5C 109.781,259.062 109.281,257.729 108.5,256.5C 101.5,252.333 94.5,248.167 87.5,244C 85.9154,243.915 84.5821,243.749 83.5,243.5C 86.8455,237.473 90.1788,231.473 93.5,225.5 Z"/></g>
<g><path style="opacity:1" fill="#eef0f2" d="M 814.5,242.5 C 817.892,247.605 821.059,252.938 824,258.5C 826.532,263.093 825.365,265.093 820.5,264.5C 821.721,259.936 820.388,256.269 816.5,253.5C 806.286,256.914 805.953,261.247 815.5,266.5C 813.043,268.757 810.376,269.757 807.5,269.5C 807.977,268.522 808.643,267.689 809.5,267C 808.192,264.205 806.526,261.705 804.5,259.5C 800.625,260.931 797.292,263.098 794.5,266C 795.953,268.405 797.287,270.905 798.5,273.5C 806.046,274.844 806.213,276.511 799,278.5C 793.987,272.137 790.32,265.137 788,257.5C 788.689,258.357 789.522,259.023 790.5,259.5C 798.414,255.294 806.247,250.96 814,246.5C 814.49,245.207 814.657,243.873 814.5,242.5 Z"/></g>
<g><path style="opacity:1" fill="#f0f2f4" d="M 73.5,261.5 C 74.2273,263.323 74.5606,265.157 74.5,267C 81.8195,270.91 89.3195,274.41 97,277.5C 99.0257,276.48 100.359,274.813 101,272.5C 101.425,269.328 101.091,266.328 100,263.5C 101.586,264.376 103.086,265.376 104.5,266.5C 105.614,267.723 105.781,269.056 105,270.5C 102.255,276.325 99.2547,281.992 96,287.5C 95.7508,286.376 95.2508,285.376 94.5,284.5C 86.5,280.5 78.5,276.5 70.5,272.5C 69.8333,273.167 69.1667,273.833 68.5,274.5C 68.1667,274.167 67.8333,273.833 67.5,273.5C 69.5133,269.473 71.5133,265.473 73.5,261.5 Z"/></g>
<g><path style="opacity:1" fill="#f0f2f4" d="M 824.5,276.5 C 833.347,277.517 837.847,282.517 838,291.5C 836.087,293.187 833.92,293.687 831.5,293C 835.393,289.412 835.393,285.746 831.5,282C 828.692,281.08 826.525,281.913 825,284.5C 824.811,289.251 824.145,293.917 823,298.5C 814.699,304.923 808.365,303.257 804,293.5C 803.163,291.179 802.83,288.845 803,286.5C 804.912,285.308 806.912,284.308 809,283.5C 807.504,286.211 806.838,289.211 807,292.5C 808.124,297.115 810.957,298.615 815.5,297C 816.46,295.581 817.293,294.081 818,292.5C 816.889,285.58 819.055,280.246 824.5,276.5 Z"/></g>
<g><path style="opacity:1" fill="#eff1f3" d="M 90.5,294.5 C 91.4972,294.47 92.1639,294.97 92.5,296C 91.3957,299.704 89.8957,303.204 88,306.5C 87.51,305.207 87.3433,303.873 87.5,302.5C 84.4281,302.183 81.4281,302.516 78.5,303.5C 76.7301,306.673 75.8968,310.006 76,313.5C 77.6667,315.167 79.3333,316.833 81,318.5C 82,317.5 83,316.5 84,315.5C 83.6395,318.924 82.6395,322.258 81,325.5C 73.3643,316.863 65.3643,308.53 57,300.5C 56.3333,299.167 56.3333,297.833 57,296.5C 68.2648,295.843 79.4315,295.177 90.5,294.5 Z"/></g>
<g><path style="opacity:0.499" fill="#888987" d="M 208.5,295.5 C 209.918,297.988 209.084,299.654 206,300.5C 205.5,300.167 205,299.833 204.5,299.5C 205.549,297.784 206.882,296.451 208.5,295.5 Z"/></g>
<g><path style="opacity:1" fill="#8092a0" d="M 75.5,302.5 C 71.6286,302.185 67.9619,302.518 64.5,303.5C 63.9569,303.44 63.6236,303.107 63.5,302.5C 67.6493,301.191 71.6493,301.191 75.5,302.5 Z"/></g>
<g><path style="opacity:1" fill="#28455e" d="M 75.5,302.5 C 74.8972,305.308 73.8972,307.974 72.5,310.5C 69.7883,308.115 67.1216,305.782 64.5,303.5C 67.9619,302.518 71.6286,302.185 75.5,302.5 Z"/></g>
<g><path style="opacity:0.992" fill="#1d3c56" d="M 428.5,301.5 C 436.055,312.688 444.721,323.188 454.5,333C 470.188,345.902 488.188,353.569 508.5,356C 528.838,357.435 549.005,356.268 569,352.5C 569.5,352.833 570,353.167 570.5,353.5C 555.073,375.36 544.239,399.36 538,425.5C 530.749,461.501 539.249,493.168 563.5,520.5C 563.167,520.833 562.833,521.167 562.5,521.5C 536.791,515.204 511.458,516.37 486.5,525C 466.646,532.893 457.646,547.393 459.5,568.5C 440.666,565.626 421.999,561.793 403.5,557C 396.205,555.506 388.872,554.34 381.5,553.5C 383.76,545.214 385.927,536.881 388,528.5C 395.293,482.256 379.126,446.756 339.5,422C 330.342,416.95 321.008,412.283 311.5,408C 370.66,394.674 409.66,359.174 428.5,301.5 Z"/></g>
<g><path style="opacity:1" fill="#f2f4f5" d="M 848.5,320.5 C 854.323,330.148 855.823,340.481 853,351.5C 845.458,358.398 837.291,359.231 828.5,354C 823.477,346.598 820.644,338.431 820,329.5C 820.739,330.574 821.739,331.241 823,331.5C 831.364,328.656 839.864,326.323 848.5,324.5C 848.5,323.167 848.5,321.833 848.5,320.5 Z"/></g>
<g><path style="opacity:1" fill="#eff1f3" d="M 48.5,322.5 C 49.6594,323.456 50.8261,324.456 52,325.5C 60.7235,328.389 69.5568,330.722 78.5,332.5C 78.7135,334.144 78.3802,335.644 77.5,337C 68.5,340.667 59.5,344.333 50.5,348C 56.5762,350.52 62.9095,352.353 69.5,353.5C 71.3969,353.272 72.7303,352.272 73.5,350.5C 73.8333,350.667 74.1667,350.833 74.5,351C 73.0717,354.45 71.7384,357.95 70.5,361.5C 69.5713,360.311 69.238,358.978 69.5,357.5C 61.2934,355.74 53.1268,353.74 45,351.5C 43.2894,351.439 41.956,352.106 41,353.5C 40.6871,350.405 41.1871,347.405 42.5,344.5C 50.7829,340.905 59.1163,337.405 67.5,334C 62.1492,332.496 56.8159,330.996 51.5,329.5C 49.626,329.39 48.126,330.056 47,331.5C 46.6968,328.376 47.1968,325.376 48.5,322.5 Z"/></g>
<g><path style="opacity:1" fill="#21405a" d="M 844.5,331.5 C 846.467,331.261 848.301,331.594 850,332.5C 853.643,341.598 850.81,347.431 841.5,350C 830.856,352.517 825.19,348.35 824.5,337.5C 831.374,335.787 838.04,333.787 844.5,331.5 Z"/></g>
<g><path style="opacity:0.988" fill="#a96867" d="M 519.5,333.5 C 521.28,334.99 521.946,336.99 521.5,339.5C 520.262,337.786 519.595,335.786 519.5,333.5 Z"/></g>
<g><path style="opacity:0.716" fill="#878886" d="M 163.5,345.5 C 168.244,345.038 169.244,346.538 166.5,350C 164.975,351.009 163.308,351.509 161.5,351.5C 161.253,349.142 161.919,347.142 163.5,345.5 Z"/></g>
<g><path style="opacity:0.488" fill="#8c8c8b" d="M 175.5,346.5 C 177.153,347.605 178.82,347.771 180.5,347C 181.517,348.049 181.684,349.216 181,350.5C 179.601,350.501 178.101,350.835 176.5,351.5C 175.548,349.955 175.215,348.288 175.5,346.5 Z"/></g>
<g><path style="opacity:0.72" fill="#888987" d="M 167.5,353.5 C 168.5,353.5 169.5,353.5 170.5,353.5C 170.031,356.308 168.697,358.642 166.5,360.5C 165.368,358.01 165.701,355.676 167.5,353.5 Z"/></g>
<g><path style="opacity:1" fill="#e9ecee" d="M 860.5,362.5 C 864.593,364.258 865.259,366.758 862.5,370C 857.317,371.461 852.984,370.294 849.5,366.5C 852.386,366.29 855.386,366.123 858.5,366C 859.305,364.887 859.972,363.721 860.5,362.5 Z"/></g>
<g><path style="opacity:1" fill="#f0f2f4" d="M 43.5,365.5 C 63.716,363.648 70.8827,372.315 65,391.5C 58.0489,398.015 50.2156,399.182 41.5,395C 34.0438,388.356 32.5438,380.522 37,371.5C 39.0627,369.266 41.2294,367.266 43.5,365.5 Z"/></g>
<g><path style="opacity:1" fill="#214059" d="M 41.5,372.5 C 48.9094,371.621 55.9094,372.788 62.5,376C 67.378,385.337 64.378,390.17 53.5,390.5C 47.4321,390.756 42.2654,388.756 38,384.5C 36.5927,379.556 37.7593,375.556 41.5,372.5 Z"/></g>
<g><path style="opacity:0.641" fill="#8c8d8c" d="M 198.5,374.5 C 199.5,374.5 200.5,374.5 201.5,374.5C 201.872,377.022 201.039,379.022 199,380.5C 197.388,378.544 197.222,376.544 198.5,374.5 Z"/></g>
<g><path style="opacity:1" fill="#f0f2f4" d="M 864.5,385.5 C 864.795,387.735 864.461,389.735 863.5,391.5C 862.378,390.844 861.045,390.511 859.5,390.5C 851.756,391.259 844.09,392.426 836.5,394C 835.929,395.205 835.262,396.372 834.5,397.5C 833.256,393.22 832.756,388.886 833,384.5C 833.408,386.41 834.575,387.41 836.5,387.5C 844.788,385.768 853.121,384.268 861.5,383C 862.191,381.933 862.691,380.766 863,379.5C 864.128,381.345 864.628,383.345 864.5,385.5 Z"/></g>
<g><path style="opacity:1" fill="#a06a68" d="M 562.5,380.5 C 562.408,382.848 561.408,384.514 559.5,385.5C 559.75,383.326 560.75,381.659 562.5,380.5 Z"/></g>
<g><path style="opacity:1" fill="#9ba9b5" d="M 864.5,385.5 C 865.634,387.966 865.801,390.633 865,393.5C 864.283,392.956 863.783,392.289 863.5,391.5C 864.461,389.735 864.795,387.735 864.5,385.5 Z"/></g>
<g><path style="opacity:0.788" fill="#626d76" d="M 218.5,374.5 C 221.8,392.638 224.8,410.972 227.5,429.5C 223.332,411.487 220.332,393.154 218.5,374.5 Z"/></g>
<g><path style="opacity:0.726" fill="#888987" d="M 147.5,399.5 C 148.693,399.97 149.36,400.97 149.5,402.5C 149.199,405.489 147.532,406.822 144.5,406.5C 144.166,403.509 145.166,401.176 147.5,399.5 Z"/></g>
<g><path style="opacity:1" fill="#eef1f3" d="M 31.5,403.5 C 33.0257,404.105 34.0257,405.271 34.5,407C 42.7002,407.537 50.8668,408.37 59,409.5C 60.8895,409.215 62.2229,408.215 63,406.5C 63.5772,410.888 63.2439,415.221 62,419.5C 61.5172,418.552 61.3505,417.552 61.5,416.5C 52.5005,415.358 43.5005,414.358 34.5,413.5C 33.1861,414.313 32.0195,415.313 31,416.5C 30.4657,412.141 30.6324,407.808 31.5,403.5 Z"/></g>
<g><path style="opacity:1" fill="#eef0f2" d="M 865.5,403.5 C 866.777,404.694 867.444,406.36 867.5,408.5C 867.333,410.167 867.167,411.833 867,413.5C 860.5,419.333 854,425.167 847.5,431C 853.758,430.75 860.091,430.417 866.5,430C 867.227,428.601 867.727,427.101 868,425.5C 869.588,429.309 869.922,433.309 869,437.5C 868.626,436.584 868.126,435.75 867.5,435C 857.157,434.485 846.823,434.651 836.5,435.5C 836.351,434.448 836.517,433.448 837,432.5C 843.883,425.649 851.05,419.149 858.5,413C 851.833,412.333 845.167,412.333 838.5,413C 837.773,414.399 837.273,415.899 837,417.5C 835.496,413.961 835.163,410.295 836,406.5C 836.5,407 837,407.5 837.5,408C 846.524,408.54 855.524,408.207 864.5,407C 865.337,405.989 865.67,404.822 865.5,403.5 Z"/></g>
<g><path style="opacity:0.396" fill="#778086" d="M 297.5,409.5 C 299.537,410.846 301.537,412.18 303.5,413.5C 300.392,413.625 298.392,412.292 297.5,409.5 Z"/></g>
<g><path style="opacity:1" fill="#f3f5f6" d="M 29.5,425.5 C 32.2469,425.187 34.9135,425.52 37.5,426.5C 36.1502,427.95 34.4835,428.617 32.5,428.5C 32.5,431.167 32.5,433.833 32.5,436.5C 41.5035,437.6 50.5035,437.6 59.5,436.5C 59.8076,435.692 60.3076,435.025 61,434.5C 61.6667,438.833 61.6667,443.167 61,447.5C 60.044,446.421 59.2106,445.255 58.5,444C 49.8397,443.5 41.1731,443.334 32.5,443.5C 31.7318,447.83 33.0651,451.163 36.5,453.5C 34.2573,454.474 31.924,454.808 29.5,454.5C 29.5,444.833 29.5,435.167 29.5,425.5 Z"/></g>
<g><path style="opacity:0.031" fill="#6b7379" d="M 227.5,429.5 C 228.913,432.219 229.58,435.219 229.5,438.5C 228.087,435.781 227.42,432.781 227.5,429.5 Z"/></g>
<g><path style="opacity:0.773" fill="#888886" d="M 666.5,446.5 C 666.595,444.214 667.262,442.214 668.5,440.5C 670.129,439.375 671.629,438.041 673,436.5C 673.667,438.167 673.667,439.833 673,441.5C 672.391,445.283 670.224,446.95 666.5,446.5 Z"/></g>
<g><path style="opacity:0.874" fill="#4a5d6b" d="M 349.5,437.5 C 350.117,437.611 350.617,437.944 351,438.5C 351.5,447.827 351.666,457.161 351.5,466.5C 350.785,456.963 350.118,447.296 349.5,437.5 Z"/></g>
<g><path style="opacity:1" fill="#f3f4f6" d="M 837.5,446.5 C 839.104,447.287 839.771,448.62 839.5,450.5C 848.857,450.832 858.19,450.498 867.5,449.5C 867.808,448.692 868.308,448.025 869,447.5C 869.5,455.159 869.666,462.826 869.5,470.5C 867.076,470.808 864.743,470.474 862.5,469.5C 863.689,468.571 865.022,468.238 866.5,468.5C 866.5,464.833 866.5,461.167 866.5,457.5C 862.5,457.5 858.5,457.5 854.5,457.5C 854.335,460.518 854.502,463.518 855,466.5C 855.925,467.047 856.758,467.713 857.5,468.5C 854.5,469.833 851.5,469.833 848.5,468.5C 851.131,465.041 852.131,461.041 851.5,456.5C 847.486,456.334 843.486,456.501 839.5,457C 838.809,458.067 838.309,459.234 838,460.5C 837.501,455.845 837.334,451.179 837.5,446.5 Z"/></g>
<g><path style="opacity:0.995" fill="#946969" d="M 543.5,434.5 C 543.5,444.5 543.5,454.5 543.5,464.5C 540.833,454.5 540.833,444.5 543.5,434.5 Z"/></g>
<g><path style="opacity:1" fill="#f5f6f7" d="M 62.5,481.5 C 62.8064,484.385 62.4731,487.052 61.5,489.5C 51.4829,485.173 41.1496,481.34 30.5,478C 29.1667,476 29.1667,474 30.5,472C 40.9282,467.952 50.9282,463.119 60.5,457.5C 61.6599,461.459 61.8265,465.459 61,469.5C 60.4806,468.484 59.6473,467.818 58.5,467.5C 56.4317,467.967 54.4317,468.634 52.5,469.5C 51.3414,473.122 51.1747,476.789 52,480.5C 55.5375,484.085 58.8708,484.085 62,480.5C 62.3988,480.728 62.5654,481.062 62.5,481.5 Z"/></g>
<g><path style="opacity:0.169" fill="#6d757a" d="M 234.5,458.5 C 235.924,460.515 236.59,462.848 236.5,465.5C 235.076,463.485 234.41,461.152 234.5,458.5 Z"/></g>
<g><path style="opacity:0.801" fill="#888988" d="M 176.5,466.5 C 180.437,468.761 182.77,472.094 183.5,476.5C 179.308,475.315 176.308,472.649 174.5,468.5C 174.855,467.478 175.522,466.811 176.5,466.5 Z"/></g>
<g><path style="opacity:1" fill="#9a5e5d" d="M 543.5,467.5 C 545.344,469.279 546.01,471.612 545.5,474.5C 544.388,472.401 543.721,470.067 543.5,467.5 Z"/></g>
<g><path style="opacity:1" fill="#334e66" d="M 46.5,471.5 C 47.4959,471.414 48.3292,471.748 49,472.5C 49.4974,475.146 49.6641,477.813 49.5,480.5C 45.3043,479.768 41.3043,478.435 37.5,476.5C 40.4791,474.633 43.4791,472.967 46.5,471.5 Z"/></g>
<g><path style="opacity:1" fill="#f3f5f6" d="M 844.5,478.5 C 860.895,477.063 868.395,484.396 867,500.5C 862.313,509.852 854.813,513.018 844.5,510C 835.752,505.455 832.585,498.288 835,488.5C 837.022,483.98 840.189,480.647 844.5,478.5 Z"/></g>
<g><path style="opacity:1" fill="#21405a" d="M 842.5,485.5 C 850.737,484.097 857.904,486.097 864,491.5C 865.467,500.701 861.467,504.701 852,503.5C 844.115,504.485 838.948,501.319 836.5,494C 837.174,490.17 839.174,487.336 842.5,485.5 Z"/></g>
<g><path style="opacity:1" fill="#90a0ad" d="M 62.5,481.5 C 63.8032,484.355 63.8032,487.355 62.5,490.5C 61.8933,490.376 61.56,490.043 61.5,489.5C 62.4731,487.052 62.8064,484.385 62.5,481.5 Z"/></g>
<g><path style="opacity:0.494" fill="#927878" d="M 549.5,485.5 C 550.931,486.78 551.598,488.447 551.5,490.5C 550.069,489.22 549.402,487.553 549.5,485.5 Z"/></g>
<g><path style="opacity:1" fill="#eef0f2" d="M 56.5,498.5 C 59.5,498.5 62.5,498.5 65.5,498.5C 65.6495,499.552 65.4828,500.552 65,501.5C 58.5,508.667 52,515.833 45.5,523C 52.167,522.502 58.8337,521.668 65.5,520.5C 65.238,519.022 65.5713,517.689 66.5,516.5C 68.3901,519.952 68.8901,523.618 68,527.5C 66.3023,526.267 64.3023,525.6 62,525.5C 54.1837,526.191 46.517,527.525 39,529.5C 38.6667,530.833 38.3333,532.167 38,533.5C 36.6752,529.572 36.3418,525.572 37,521.5C 42.8333,515.667 48.6667,509.833 54.5,504C 49.1616,504.221 43.8283,504.888 38.5,506C 36.4794,506.513 34.9794,507.68 34,509.5C 32.6323,506.262 32.2989,502.928 33,499.5C 33.3468,501.18 34.3468,502.18 36,502.5C 43.0053,501.363 49.8386,500.029 56.5,498.5 Z"/></g>
<g><path style="opacity:1" fill="#9b5f5d" d="M 556.5,499.5 C 558.759,500.344 559.759,502.011 559.5,504.5C 558.11,503.101 557.11,501.434 556.5,499.5 Z"/></g>
<g><path style="opacity:0.047" fill="#8c7575" d="M 561.5,506.5 C 562.906,506.973 563.573,507.973 563.5,509.5C 562.094,509.027 561.427,508.027 561.5,506.5 Z"/></g>
<g><path style="opacity:0.008" fill="#8a7572" d="M 565.5,511.5 C 567.262,512.262 568.262,513.596 568.5,515.5C 566.738,514.738 565.738,513.404 565.5,511.5 Z"/></g>
<g><path style="opacity:0.42" fill="#707a81" d="M 253.5,511.5 C 255.293,513.426 256.293,515.759 256.5,518.5C 254.707,516.574 253.707,514.241 253.5,511.5 Z"/></g>
<g><path style="opacity:1" fill="#f1f3f5" d="M 831.5,515.5 C 833.176,516.183 833.843,517.517 833.5,519.5C 841.323,520.776 849.156,522.109 857,523.5C 859.352,523.695 861.352,523.028 863,521.5C 862.213,527.872 860.879,534.205 859,540.5C 856.565,545.224 852.731,546.724 847.5,545C 845.232,543.442 844.066,541.276 844,538.5C 843.439,537.978 842.772,537.645 842,537.5C 836.698,539.65 831.698,542.317 827,545.5C 826.333,543.167 826.333,540.833 827,538.5C 832.473,534.847 838.306,531.847 844.5,529.5C 844.579,534.735 847.079,538.068 852,539.5C 856.922,538.661 859.088,535.661 858.5,530.5C 850.645,529.363 842.812,528.029 835,526.5C 832.966,526.354 831.299,527.02 830,528.5C 830.002,524.14 830.502,519.807 831.5,515.5 Z"/></g>
<g><path style="opacity:0.984" fill="#a15b5c" d="M 531.5,533.5 C 531.59,536.152 530.924,538.485 529.5,540.5C 529.41,537.848 530.076,535.515 531.5,533.5 Z"/></g>
<g><path style="opacity:1" fill="#eef0f2" d="M 68.5,553.5 C 71.1194,553.232 73.6194,553.565 76,554.5C 78.5193,561.371 80.186,568.371 81,575.5C 80.2613,574.426 79.2613,573.759 78,573.5C 70.1051,575.798 62.2718,578.298 54.5,581C 53.1509,581.772 52.3176,582.939 52,584.5C 48.3034,577.484 46.47,570.15 46.5,562.5C 47.891,561.355 49.2243,561.355 50.5,562.5C 49.6171,563.548 48.9504,564.715 48.5,566C 49.1804,569.241 50.5137,572.074 52.5,574.5C 55.3318,573.42 58.1651,572.42 61,571.5C 61.5747,566.854 59.7414,563.688 55.5,562C 57.9347,559.902 60.6014,559.402 63.5,560.5C 62.2706,564.162 62.9372,567.495 65.5,570.5C 68.7268,569.091 72.0601,568.091 75.5,567.5C 75.6633,565.143 75.4966,562.81 75,560.5C 73.0133,557.81 70.8466,555.477 68.5,553.5 Z"/></g>
<g><path style="opacity:1" fill="#f1f3f4" d="M 842.5,572.5 C 836.794,572.171 831.128,572.505 825.5,573.5C 825.624,574.107 825.957,574.44 826.5,574.5C 832.544,579.612 838.711,584.612 845,589.5C 844.749,593.082 843.583,596.416 841.5,599.5C 840.77,598.066 839.77,596.9 838.5,596C 830.864,593.399 823.198,590.899 815.5,588.5C 814.328,588.919 813.328,589.585 812.5,590.5C 812.483,586.359 813.65,582.359 816,578.5C 816.309,579.766 816.809,580.933 817.5,582C 824.146,584.441 830.812,586.441 837.5,588C 831.333,582.5 825.167,577 819,571.5C 818.51,570.207 818.343,568.873 818.5,567.5C 827.183,567.332 835.849,566.832 844.5,566C 838,563.833 831.5,561.667 825,559.5C 823.739,559.759 822.739,560.426 822,561.5C 821.814,557.857 822.814,554.523 825,551.5C 825.273,553.101 825.773,554.601 826.5,556C 834.758,558.641 842.925,561.475 851,564.5C 852,563.5 853,562.5 854,561.5C 853.304,565.114 852.47,568.781 851.5,572.5C 848.5,572.5 845.5,572.5 842.5,572.5 Z"/></g>
<g><path style="opacity:1" fill="#7e909f" d="M 842.5,572.5 C 837.167,573.167 831.833,573.833 826.5,574.5C 825.957,574.44 825.624,574.107 825.5,573.5C 831.128,572.505 836.794,572.171 842.5,572.5 Z"/></g>
<g><path style="opacity:1" fill="#f0f2f3" d="M 80.5,583.5 C 82.3904,583.297 83.8904,583.963 85,585.5C 92.6698,594.803 92.1698,603.636 83.5,612C 67.4556,618.222 58.289,612.722 56,595.5C 58.0027,593.078 60.5027,592.245 63.5,593C 58.4875,598.083 58.8208,603.083 64.5,608C 73.4099,609.91 80.2432,607.077 85,599.5C 85.6667,596.5 85.6667,593.5 85,590.5C 83.2502,588.266 81.7502,585.932 80.5,583.5 Z"/></g>
<g><path style="opacity:1" fill="#f0f2f3" d="M 808.5,596.5 C 816.449,605.455 824.449,614.455 832.5,623.5C 831.841,626.824 829.841,628.157 826.5,627.5C 816.476,626.185 806.476,625.852 796.5,626.5C 796.648,622.247 798.148,618.247 801,614.5C 801.494,616.134 801.66,617.801 801.5,619.5C 804.5,619.5 807.5,619.5 810.5,619.5C 810.755,616.984 811.589,614.65 813,612.5C 814.018,608.326 812.518,605.326 808.5,603.5C 807.38,604.833 806.047,605.333 804.5,605C 806.246,602.341 807.58,599.508 808.5,596.5 Z"/></g>
<g><path style="opacity:0.705" fill="#898a88" d="M 132.5,599.5 C 134.39,599.297 135.89,599.963 137,601.5C 143.965,611.098 151.632,620.098 160,628.5C 160.483,629.448 160.649,630.448 160.5,631.5C 157.685,630.874 155.185,629.54 153,627.5C 147.412,618.252 140.746,609.919 133,602.5C 132.517,601.552 132.351,600.552 132.5,599.5 Z"/></g>
<g><path style="opacity:1" fill="#2a475f" d="M 816.5,611.5 C 819.631,614.129 822.631,616.962 825.5,620C 821.833,620.667 818.167,620.667 814.5,620C 813.733,616.969 814.4,614.136 816.5,611.5 Z"/></g>
<g><path style="opacity:0.824" fill="#888987" d="M 750.5,614.5 C 751.097,614.735 751.43,615.235 751.5,616C 749.358,624.764 745.858,632.931 741,640.5C 735.916,649.003 730.583,657.336 725,665.5C 722.353,669.314 719.187,672.647 715.5,675.5C 714.432,673.813 714.599,672.146 716,670.5C 726.759,651.303 738.259,632.637 750.5,614.5 Z"/></g>
<g><path style="opacity:1" fill="#eef1f3" d="M 97.5,616.5 C 99.2517,616.418 100.252,617.251 100.5,619C 96.7908,627.959 92.7908,636.793 88.5,645.5C 88.8333,645.833 89.1667,646.167 89.5,646.5C 94.9918,643.921 100.325,641.088 105.5,638C 106.249,636.266 106.749,634.433 107,632.5C 109.534,635.893 111.201,639.559 112,643.5C 110.534,641.675 108.701,641.175 106.5,642C 99.6755,645.245 93.0089,648.745 86.5,652.5C 85.6922,654.423 85.1922,656.423 85,658.5C 82.9128,655.327 81.0795,651.994 79.5,648.5C 83.5,640.833 87.5,633.167 91.5,625.5C 91.1667,625.167 90.8333,624.833 90.5,624.5C 85.6587,627.421 80.6587,630.088 75.5,632.5C 74.7022,634.078 74.2022,635.744 74,637.5C 72.0404,634.415 70.2071,631.248 68.5,628C 70.3454,628.783 72.3454,629.116 74.5,629C 82.2285,624.805 89.8952,620.638 97.5,616.5 Z"/></g>
<g><path style="opacity:0.662" fill="#8b8c8a" d="M 154.5,631.5 C 158.342,632.624 160.009,634.957 159.5,638.5C 156.61,636.957 154.943,634.624 154.5,631.5 Z"/></g>
<g><path style="opacity:0.81" fill="#888987" d="M 165.5,637.5 C 162.69,633.339 163.69,632.506 168.5,635C 173.755,638.251 178.422,642.251 182.5,647C 179.066,646.381 175.733,646.048 172.5,646C 169.577,643.955 166.743,641.788 164,639.5C 163.472,638.184 163.972,637.517 165.5,637.5 Z"/></g>
<g><path style="opacity:1" fill="#eff1f3" d="M 790.5,634.5 C 791.224,636.218 791.891,638.052 792.5,640C 799.5,643.833 806.5,647.667 813.5,651.5C 818.263,648.391 818.596,644.891 814.5,641C 821.316,641.134 822.816,643.967 819,649.5C 815.365,655.965 811.532,662.298 807.5,668.5C 799.842,665.145 799.842,663.645 807.5,664C 809.455,661.832 810.121,659.498 809.5,657C 802.833,653.333 796.167,649.667 789.5,646C 787.888,645.28 786.388,645.446 785,646.5C 785.981,642.198 787.814,638.198 790.5,634.5 Z"/></g>
<g><path style="opacity:0.661" fill="#8d8f8c" d="M 185.5,648.5 C 188.061,648.447 190.061,649.447 191.5,651.5C 188.119,653.143 186.119,652.143 185.5,648.5 Z"/></g>
<g><path style="opacity:1" fill="#eef1f3" d="M 115.5,649.5 C 117.074,649.937 118.241,650.937 119,652.5C 122.5,658.167 126,663.833 129.5,669.5C 129.333,669.833 129.167,670.167 129,670.5C 128.261,669.426 127.261,668.759 126,668.5C 119.177,672.651 112.343,676.818 105.5,681C 103.996,682.491 103.163,684.324 103,686.5C 98.3362,680.509 94.1695,674.176 90.5,667.5C 92.2403,665.789 94.2403,664.956 96.5,665C 94.4099,669.718 95.7432,673.552 100.5,676.5C 103.473,674.853 106.14,672.853 108.5,670.5C 106.911,666.741 104.244,664.241 100.5,663C 102.405,661.13 104.572,659.63 107,658.5C 106.607,662.712 108.107,666.378 111.5,669.5C 115.012,667.243 118.346,664.743 121.5,662C 120.084,659.165 118.417,656.498 116.5,654C 114.5,653.667 112.5,653.333 110.5,653C 112.233,651.811 113.9,650.644 115.5,649.5 Z"/></g>
<g><path style="opacity:1" fill="#f2f4f5" d="M 775.5,659.5 C 776.161,660.718 776.828,662.051 777.5,663.5C 784.303,667.804 790.97,672.304 797.5,677C 799.367,677.711 800.867,677.211 802,675.5C 800.755,679.971 798.421,683.971 795,687.5C 794.749,685.567 794.249,683.734 793.5,682C 786.833,677.667 780.167,673.333 773.5,669C 772.049,669.263 770.716,669.096 769.5,668.5C 771.526,665.482 773.526,662.482 775.5,659.5 Z"/></g>
<g><path style="opacity:0.972" fill="#888987" d="M 180.5,672.5 C 180.5,671.5 180.5,670.5 180.5,669.5C 182.591,669.682 184.591,669.348 186.5,668.5C 187.835,670.201 189.168,671.868 190.5,673.5C 190.369,672.624 190.702,671.957 191.5,671.5C 197.185,677.334 203.852,681.834 211.5,685C 214.5,685.333 217.5,685.667 220.5,686C 221.93,690.034 223.263,690.201 224.5,686.5C 225.845,687.347 226.845,688.513 227.5,690C 226.833,690.333 226.167,690.667 225.5,691C 235.201,697.516 245.201,703.516 255.5,709C 265.654,710.079 274.988,713.413 283.5,719C 287.052,722.219 290.885,725.052 295,727.5C 295.687,729.568 295.52,731.568 294.5,733.5C 295,733.833 295.5,734.167 296,734.5C 299.455,733.45 302.955,733.283 306.5,734C 307.126,734.75 307.626,735.584 308,736.5C 310.401,735.398 312.901,735.231 315.5,736C 319.5,737 323.5,738 327.5,739C 329.854,741.439 332.687,741.939 336,740.5C 342.156,741.118 348.323,741.618 354.5,742C 363.283,745.221 372.283,747.555 381.5,749C 385.128,750.792 387.461,753.625 388.5,757.5C 386.132,761.191 384.965,765.191 385,769.5C 388.167,772 391.333,774.5 394.5,777C 397.109,779.846 399.442,782.846 401.5,786C 398.138,787.915 394.471,788.915 390.5,789C 390.043,789.414 389.709,789.914 389.5,790.5C 394.801,792.484 399.801,794.984 404.5,798C 324.337,787.833 255.837,754.333 199,697.5C 191.605,687.413 183.272,678.08 174,669.5C 173.626,668.584 173.126,667.75 172.5,667C 172.833,666.833 173.167,666.667 173.5,666.5C 175.853,668.523 178.186,670.523 180.5,672.5 Z"/></g>
<g><path style="opacity:1" fill="#eff1f3" d="M 132.5,678.5 C 141.038,682.213 146.038,688.713 147.5,698C 145.93,707.901 140.097,713.401 130,714.5C 120.385,712.222 113.885,706.389 110.5,697C 111.997,695.338 113.663,693.838 115.5,692.5C 115.96,708.568 123.293,712.402 137.5,704C 144.474,696.906 144.14,690.406 136.5,684.5C 131.432,686.328 129.265,689.661 130,694.5C 127.045,690.756 124.211,686.922 121.5,683C 125.999,683.757 129.665,682.257 132.5,678.5 Z"/></g>
<g><path style="opacity:0.969" fill="#737e87" d="M 432.5,678.5 C 436.566,681.563 439.899,685.229 442.5,689.5C 438.434,686.437 435.101,682.771 432.5,678.5 Z"/></g>
<g><path style="opacity:1" fill="#f2f3f5" d="M 763.5,680.5 C 780.036,681.188 786.536,689.521 783,705.5C 773.786,717.039 764.119,717.373 754,706.5C 751.599,701.768 750.932,696.768 752,691.5C 755.07,686.927 758.904,683.261 763.5,680.5 Z"/></g>
<g><path style="opacity:1" fill="#214059" d="M 760.5,685.5 C 767.471,686.236 773.304,689.236 778,694.5C 783.461,704.353 780.628,709.187 769.5,709C 764.481,706.985 760.315,703.818 757,699.5C 754.267,693.722 755.434,689.056 760.5,685.5 Z"/></g>
<g><path style="opacity:0.765" fill="#78757a" d="M 443.5,689.5 C 445.797,691.294 447.963,693.294 450,695.5C 450.708,694.619 451.542,693.953 452.5,693.5C 452.262,695.404 451.262,696.738 449.5,697.5C 446.912,695.225 444.912,692.559 443.5,689.5 Z"/></g>
<g><path style="opacity:1" fill="#f1f2f4" d="M 154.5,703.5 C 158.266,705.43 161.266,708.264 163.5,712C 159.563,712.327 157.23,714.493 156.5,718.5C 158.453,722.12 161.119,725.12 164.5,727.5C 166.385,726.391 168.385,725.557 170.5,725C 171.217,723.348 171.55,721.848 171.5,720.5C 174.024,722.19 176.024,724.357 177.5,727C 167.297,730.068 157.297,733.735 147.5,738C 144.447,739.072 142.447,738.072 141.5,735C 144.864,727.772 148.364,720.605 152,713.5C 153.727,710.382 154.561,707.049 154.5,703.5 Z"/></g>
<g><path style="opacity:1" fill="#eff1f3" d="M 740.5,705.5 C 741.791,706.542 741.791,707.708 740.5,709C 746.748,715.92 753.581,722.086 761,727.5C 761.873,727.265 762.707,726.931 763.5,726.5C 764.521,727.002 764.688,727.668 764,728.5C 762.5,730 761,731.5 759.5,733C 750.098,733.495 740.765,733.161 731.5,732C 735.5,736 739.5,740 743.5,744C 745.207,744.195 746.874,744.195 748.5,744C 746.333,746.167 744.167,748.333 742,750.5C 741.667,749.167 741.333,747.833 741,746.5C 734.667,740.5 728.333,734.5 722,728.5C 721.51,727.207 721.343,725.873 721.5,724.5C 729.555,724.509 737.555,725.176 745.5,726.5C 747.5,726.167 749.5,725.833 751.5,725.5C 747.209,721.342 742.875,717.176 738.5,713C 737.167,713 735.833,713 734.5,713C 736.334,710.337 738.334,707.837 740.5,705.5 Z"/></g>
<g><path style="opacity:1" fill="#26445d" d="M 154.5,722.5 C 156.812,724.146 158.812,726.146 160.5,728.5C 157.202,730.16 153.869,731.827 150.5,733.5C 150.167,733.167 149.833,732.833 149.5,732.5C 151.18,729.14 152.847,725.807 154.5,722.5 Z"/></g>
<g><path style="opacity:0.357" fill="#898281" d="M 424.5,727.5 C 424.5,728.167 424.5,728.833 424.5,729.5C 423.86,731.332 422.86,731.665 421.5,730.5C 422.188,729.145 423.188,728.145 424.5,727.5 Z"/></g>
<g><path style="opacity:1" fill="#f6f8f8" d="M 656.5,788.5 C 663.771,788.036 666.604,791.369 665,798.5C 656.619,805.225 652.619,803.225 653,792.5C 654.376,791.295 655.542,789.962 656.5,788.5 Z"/></g>
<g><path style="opacity:1" fill="#f3f5f6" d="M 237.5,788.5 C 248.499,790.388 250.166,795.221 242.5,803C 240.5,803.667 238.5,803.667 236.5,803C 229.849,797.749 230.182,792.916 237.5,788.5 Z"/></g>
<g><path style="opacity:1" fill="#f4f5f6" d="M 551.5,819.5 C 552.873,819.343 554.207,819.51 555.5,820C 554.101,821.062 553.101,822.395 552.5,824C 554.955,835.277 557.788,846.444 561,857.5C 562.947,858.11 564.781,858.943 566.5,860C 560.615,862.109 554.615,863.442 548.5,864C 550.122,862.705 551.455,861.205 552.5,859.5C 549.374,848.537 546.374,837.537 543.5,826.5C 541.833,825.833 540.167,825.167 538.5,824.5C 542.736,822.367 547.069,820.701 551.5,819.5 Z"/></g>
<g><path style="opacity:1" fill="#f3f5f6" d="M 360.5,822.5 C 362.441,822.869 364.275,823.536 366,824.5C 368.239,838.464 370.239,852.464 372,866.5C 374.226,868.232 373.893,869.232 371,869.5C 366.355,868.839 361.855,867.672 357.5,866C 358.905,864.731 360.571,864.231 362.5,864.5C 362.751,861.091 362.417,857.758 361.5,854.5C 356.344,851.273 350.844,850.273 345,851.5C 343.374,853.917 341.874,856.417 340.5,859C 341.685,860.353 343.019,861.52 344.5,862.5C 344,862.833 343.5,863.167 343,863.5C 338.962,862.831 335.129,861.664 331.5,860C 333.09,858.954 334.59,857.787 336,856.5C 343.998,845.009 352.164,833.676 360.5,822.5 Z"/></g>
<g><path style="opacity:1" fill="#f5f6f7" d="M 510.5,827.5 C 514.767,827.203 518.934,827.536 523,828.5C 523.667,831.5 523.667,834.5 523,837.5C 520.185,831.831 515.685,829.998 509.5,832C 506.71,834.21 505.877,837.044 507,840.5C 512.536,843.572 518.369,846.072 524.5,848C 530.381,853.551 531.047,859.718 526.5,866.5C 520.087,871.605 512.753,873.605 504.5,872.5C 503.992,868.803 503.326,865.136 502.5,861.5C 503.675,861.281 504.675,861.614 505.5,862.5C 506.373,864.413 507.373,866.247 508.5,868C 512.295,868.837 515.961,868.504 519.5,867C 523.756,862.615 523.423,858.615 518.5,855C 511.851,853.682 506.018,850.849 501,846.5C 497.77,836.961 500.936,830.627 510.5,827.5 Z"/></g>
<g><path style="opacity:1" fill="#f4f5f6" d="M 395.5,832.5 C 399.981,831.352 404.648,831.185 409.5,832C 416.125,842.082 422.625,852.249 429,862.5C 430.094,853.852 430.428,845.185 430,836.5C 428.581,835.54 427.081,834.707 425.5,834C 430.828,833.932 436.162,834.265 441.5,835C 439.975,836.009 438.308,836.509 436.5,836.5C 435.027,849.794 434.027,863.127 433.5,876.5C 430.348,877.041 427.848,876.041 426,873.5C 419.583,862.997 412.916,852.663 406,842.5C 404.553,852.176 404.053,861.843 404.5,871.5C 406.333,872.052 408,872.885 409.5,874C 404.109,874.692 398.775,874.359 393.5,873C 394.891,871.98 396.391,871.147 398,870.5C 399.675,858.224 400.508,845.89 400.5,833.5C 398.784,833.371 397.117,833.038 395.5,832.5 Z"/></g>
<g><path style="opacity:1" fill="#f2f4f6" d="M 465.5,832.5 C 470.233,832.223 474.9,832.557 479.5,833.5C 480.833,836.5 480.833,839.5 479.5,842.5C 478.289,840.578 476.956,838.745 475.5,837C 472.167,836.333 468.833,836.333 465.5,837C 461.998,839.496 461.665,842.329 464.5,845.5C 470.755,848.541 476.588,852.208 482,856.5C 485.541,864.782 483.374,870.949 475.5,875C 469.92,876.517 464.253,876.851 458.5,876C 458,875.5 457.5,875 457,874.5C 456.502,871.518 456.335,868.518 456.5,865.5C 457.5,865.5 458.5,865.5 459.5,865.5C 459.688,870.689 462.355,873.022 467.5,872.5C 475.849,872.299 478.183,868.466 474.5,861C 469.833,858.667 465.167,856.333 460.5,854C 455.064,849.215 454.23,843.715 458,837.5C 460.479,835.686 462.979,834.019 465.5,832.5 Z"/></g>
<g><path style="opacity:1" fill="#26445d" d="M 358.5,830.5 C 360.057,836.261 360.724,842.261 360.5,848.5C 357.126,848.326 353.793,847.826 350.5,847C 350.043,846.586 349.709,846.086 349.5,845.5C 352.774,840.61 355.774,835.61 358.5,830.5 Z"/></g>
</svg>
