<?xml version="1.0" encoding="UTF-8"?>
<!DOCTYPE svg PUBLIC "-//W3C//DTD SVG 1.1//EN" "http://www.w3.org/Graphics/SVG/1.1/DTD/svg11.dtd">
<svg xmlns="http://www.w3.org/2000/svg" version="1.1" width="150px" height="150px" style="shape-rendering:geometricPrecision; text-rendering:geometricPrecision; image-rendering:optimizeQuality; fill-rule:evenodd; clip-rule:evenodd" xmlns:xlink="http://www.w3.org/1999/xlink">
<g><path style="opacity:0.984" fill="#074c99" d="M 67.5,-0.5 C 72.1667,-0.5 76.8333,-0.5 81.5,-0.5C 120.5,5.83333 143.167,28.5 149.5,67.5C 149.5,72.1667 149.5,76.8333 149.5,81.5C 142.833,120.167 120.167,142.833 81.5,149.5C 76.8333,149.5 72.1667,149.5 67.5,149.5C 28.5,143.167 5.83333,120.5 -0.5,81.5C -0.5,76.8333 -0.5,72.1667 -0.5,67.5C 5.83333,28.5 28.5,5.83333 67.5,-0.5 Z"/></g>
<g><path style="opacity:1" fill="#e7bc2a" d="M 73.5,7.5 C 75.472,8.45105 77.472,9.45105 79.5,10.5C 78.066,12.2199 77.2326,14.2199 77,16.5C 75.3005,15.5939 73.4672,15.2606 71.5,15.5C 71.6168,13.5165 70.9501,11.8498 69.5,10.5C 71.1836,9.85027 72.5169,8.85027 73.5,7.5 Z"/></g>
<g><path style="opacity:1" fill="#e1ba2d" d="M 42.5,15.5 C 47.7882,17.0757 48.7882,20.0757 45.5,24.5C 43.5841,23.7517 41.5841,23.7517 39.5,24.5C 39.7394,22.5328 39.4061,20.6995 38.5,19C 40.0931,18.0513 41.4264,16.8846 42.5,15.5 Z"/></g>
<g><path style="opacity:1" fill="#e4bb2b" d="M 105.5,15.5 C 107.01,16.8361 108.677,18.0027 110.5,19C 109.897,20.8254 109.23,22.6587 108.5,24.5C 106.833,23.1667 105.167,23.1667 103.5,24.5C 102.682,22.8917 102.015,21.2251 101.5,19.5C 102.867,18.16 104.2,16.8267 105.5,15.5 Z"/></g>
<g><path style="opacity:1" fill="#ecbf24" d="M 19.5,38.5 C 21.0109,39.5025 22.6776,40.1692 24.5,40.5C 24.1667,42.5 23.8333,44.5 23.5,46.5C 21.5,46.5 19.5,46.5 17.5,46.5C 17.6168,44.5165 16.9501,42.8498 15.5,41.5C 17.1836,40.8503 18.5169,39.8503 19.5,38.5 Z"/></g>
<g><path style="opacity:1" fill="#eec022" d="M 127.5,38.5 C 129.609,39.3909 131.609,40.5576 133.5,42C 131.963,43.1096 131.297,44.6096 131.5,46.5C 129.5,46.5 127.5,46.5 125.5,46.5C 125.167,44.5 124.833,42.5 124.5,40.5C 126.179,40.7148 127.179,40.0481 127.5,38.5 Z"/></g>
<g><path style="opacity:1" fill="#f4f7fa" d="M 63.5,66.5 C 66.5,66.5 69.5,66.5 72.5,66.5C 72.5,70.1667 72.5,73.8333 72.5,77.5C 68.6804,80.3229 64.3471,81.1562 59.5,80C 56.6667,78.5 54.5,76.3333 53,73.5C 50.357,58.8087 56.1903,52.9753 70.5,56C 72.9574,57.1544 72.9574,58.4877 70.5,60C 60.2227,57.9487 56.3894,62.1153 59,72.5C 61.1962,75.1252 64.0295,76.1252 67.5,75.5C 67.5,73.8333 67.5,72.1667 67.5,70.5C 66.1667,70.5 64.8333,70.5 63.5,70.5C 63.5,69.1667 63.5,67.8333 63.5,66.5 Z"/></g>
<g><path style="opacity:1" fill="#f2f5f9" d="M 29.5,54.5 C 33.8461,54.3343 38.1794,54.501 42.5,55C 47.6165,56.7317 49.4499,60.2317 48,65.5C 46.8179,67.3436 45.6512,69.1769 44.5,71C 46.0338,73.8994 47.7005,76.7328 49.5,79.5C 47.5787,80.641 45.5787,80.8077 43.5,80C 42.2062,77.913 41.0395,75.7463 40,73.5C 38.8904,71.9632 37.3904,71.2965 35.5,71.5C 35.5,74.5 35.5,77.5 35.5,80.5C 33.5,80.5 31.5,80.5 29.5,80.5C 29.5,71.8333 29.5,63.1667 29.5,54.5 Z"/></g>
<g><path style="opacity:1" fill="#eff3f8" d="M 78.5,54.5 C 82.5138,54.3345 86.5138,54.5012 90.5,55C 96.2334,57.2477 98.0668,61.4144 96,67.5C 92.9597,70.9663 89.1264,72.2996 84.5,71.5C 84.5,74.5 84.5,77.5 84.5,80.5C 82.5,80.5 80.5,80.5 78.5,80.5C 78.5,71.8333 78.5,63.1667 78.5,54.5 Z"/></g>
<g><path style="opacity:1" fill="#f2f5f9" d="M 101.5,54.5 C 107.602,53.7327 113.269,54.8993 118.5,58C 125.116,74.5732 119.449,82.0732 101.5,80.5C 101.5,71.8333 101.5,63.1667 101.5,54.5 Z"/></g>
<g><path style="opacity:1" fill="#0f4f9c" d="M 35.5,59.5 C 41.3596,58.0738 43.3596,60.0738 41.5,65.5C 39.5914,66.3482 37.5914,66.6816 35.5,66.5C 35.5,64.1667 35.5,61.8333 35.5,59.5 Z"/></g>
<g><path style="opacity:1" fill="#0a4e9b" d="M 84.5,59.5 C 89.7087,58.7052 91.7087,60.7052 90.5,65.5C 88.604,66.4656 86.604,66.7989 84.5,66.5C 84.5,64.1667 84.5,61.8333 84.5,59.5 Z"/></g>
<g><path style="opacity:1" fill="#0f4f9c" d="M 107.5,59.5 C 113.174,59.1736 115.84,61.8403 115.5,67.5C 115.824,73.1756 113.158,75.8422 107.5,75.5C 107.5,70.1667 107.5,64.8333 107.5,59.5 Z"/></g>
<g><path style="opacity:1" fill="#7fa4cc" d="M 63.5,66.5 C 66.6248,65.5206 69.9581,65.1872 73.5,65.5C 73.8168,69.7016 73.4834,73.7016 72.5,77.5C 72.5,73.8333 72.5,70.1667 72.5,66.5C 69.5,66.5 66.5,66.5 63.5,66.5 Z"/></g>
<g><path style="opacity:1" fill="#efc120" d="M 10.5,69.5 C 12.6089,70.3909 14.6089,71.5576 16.5,73C 14.9632,74.1096 14.2965,75.6096 14.5,77.5C 12.5,77.5 10.5,77.5 8.5,77.5C 8.16667,75.5 7.83333,73.5 7.5,71.5C 9.17876,71.7148 10.1788,71.0481 10.5,69.5 Z"/></g>
<g><path style="opacity:1" fill="#ecbf23" d="M 136.5,69.5 C 138.011,70.5025 139.678,71.1692 141.5,71.5C 141.167,73.5 140.833,75.5 140.5,77.5C 138.5,77.5 136.5,77.5 134.5,77.5C 134.617,75.5165 133.95,73.8498 132.5,72.5C 134.184,71.8503 135.517,70.8503 136.5,69.5 Z"/></g>
<g><path style="opacity:1" fill="#f7f9fc" d="M 89.5,94.5 C 94.3269,93.8479 96.1603,95.8479 95,100.5C 87.8333,107.667 80.6667,114.833 73.5,122C 72.5,122.667 71.5,122.667 70.5,122C 66.6667,118.167 62.8333,114.333 59,110.5C 57.5,105.333 59.3333,103.5 64.5,105C 67,107.5 69.5,110 72,112.5C 78.0362,106.631 83.8695,100.631 89.5,94.5 Z"/></g>
<g><path style="opacity:1" fill="#e3bb2d" d="M 19.5,100.5 C 23.994,101.646 25.3273,104.313 23.5,108.5C 21.4086,108.318 19.4086,108.652 17.5,109.5C 16.7078,107.535 16.0412,105.535 15.5,103.5C 17.1836,102.85 18.5169,101.85 19.5,100.5 Z"/></g>
<g><path style="opacity:1" fill="#f0c120" d="M 127.5,100.5 C 129.609,101.391 131.609,102.558 133.5,104C 131.963,105.11 131.297,106.61 131.5,108.5C 129.5,108.5 127.5,108.5 125.5,108.5C 125.579,107.07 125.246,105.736 124.5,104.5C 125.826,103.358 126.826,102.024 127.5,100.5 Z"/></g>
<g><path style="opacity:1" fill="#e3bb2a" d="M 42.5,122.5 C 44.1477,123.81 45.8144,125.143 47.5,126.5C 46.6906,128.071 46.3573,129.738 46.5,131.5C 44.1667,131.5 41.8333,131.5 39.5,131.5C 39.6427,129.738 39.3094,128.071 38.5,126.5C 40.4206,125.676 41.754,124.343 42.5,122.5 Z"/></g>
<g><path style="opacity:1" fill="#e4bb2a" d="M 105.5,122.5 C 106.872,124.089 108.539,125.422 110.5,126.5C 109.691,128.071 109.357,129.738 109.5,131.5C 107.167,131.5 104.833,131.5 102.5,131.5C 102.643,129.738 102.309,128.071 101.5,126.5C 103.188,125.479 104.521,124.145 105.5,122.5 Z"/></g>
<g><path style="opacity:1" fill="#e9be26" d="M 73.5,133.5 C 75.6089,134.391 77.6089,135.558 79.5,137C 77.9963,138.491 77.1629,140.324 77,142.5C 75.3005,141.594 73.4672,141.261 71.5,141.5C 71.7035,139.61 71.0368,138.11 69.5,137C 71.0931,136.051 72.4264,134.885 73.5,133.5 Z"/></g>
</svg>
