<svg id="visual" viewBox="0 0 900 600" width="900" height="600" xmlns="http://www.w3.org/2000/svg" xmlns:xlink="http://www.w3.org/1999/xlink" version="1.1"><rect x="0" y="0" width="900" height="600" fill="#2d2d2d"></rect><defs><linearGradient id="grad1_0" x1="33.3%" y1="0%" x2="100%" y2="100%"><stop offset="20%" stop-color="#2d2d2d" stop-opacity="1"></stop><stop offset="80%" stop-color="#2d2d2d" stop-opacity="1"></stop></linearGradient></defs><defs><linearGradient id="grad2_0" x1="0%" y1="0%" x2="66.7%" y2="100%"><stop offset="20%" stop-color="#2d2d2d" stop-opacity="1"></stop><stop offset="80%" stop-color="#2d2d2d" stop-opacity="1"></stop></linearGradient></defs><g transform="translate(900, 0)"><path d="M0 216.3C-36.9 209.4 -73.8 202.5 -107 185.3C-140.2 168.2 -169.7 140.8 -187.3 108.2C-205 75.6 -210.6 37.8 -216.3 0L0 0Z" fill="#7952A3"></path></g><g transform="translate(0, 600)"><path d="M0 -216.3C40.1 -212 80.2 -207.6 108.2 -187.3C136.1 -167.1 152 -130.9 168 -97C184 -63.1 200.2 -31.6 216.3 0L0 0Z" fill="#7952A3"></path></g></svg>